<?xml version="1.0" encoding="UTF-8" standalone="no"?>
<!-- Created with Inkscape (http://www.inkscape.org/) -->

<svg
   xmlns:dc="http://purl.org/dc/elements/1.1/"
   xmlns:cc="http://creativecommons.org/ns#"
   xmlns:rdf="http://www.w3.org/1999/02/22-rdf-syntax-ns#"
   xmlns:svg="http://www.w3.org/2000/svg"
   xmlns="http://www.w3.org/2000/svg"
   xmlns:xlink="http://www.w3.org/1999/xlink"
   xmlns:sodipodi="http://sodipodi.sourceforge.net/DTD/sodipodi-0.dtd"
   xmlns:inkscape="http://www.inkscape.org/namespaces/inkscape"
   width="210mm"
   height="297mm"
   viewBox="0 0 210 297"
   version="1.1"
   id="svg8"
   inkscape:version="0.92.4 (5da689c313, 2019-01-14)"
   sodipodi:docname="minime1.svg">
  <defs
     id="defs2" />
  <sodipodi:namedview
     id="base"
     pagecolor="#ffffff"
     bordercolor="#666666"
     borderopacity="1.0"
     inkscape:pageopacity="0.0"
     inkscape:pageshadow="2"
     inkscape:zoom="0.35"
     inkscape:cx="411.01777"
     inkscape:cy="610.60735"
     inkscape:document-units="mm"
     inkscape:current-layer="layer5"
     showgrid="false"
     showguides="false"
     inkscape:snap-to-guides="true"
     inkscape:snap-grids="false"
     inkscape:snap-bbox="true"
     inkscape:bbox-nodes="true"
     inkscape:snap-bbox-edge-midpoints="false"
     inkscape:snap-nodes="false"
     inkscape:snap-others="true"
     inkscape:snap-object-midpoints="false"
     inkscape:guide-bbox="true"
     inkscape:bbox-paths="false"
     inkscape:snap-page="false"
     inkscape:window-width="1366"
     inkscape:window-height="705"
     inkscape:window-x="-8"
     inkscape:window-y="-8"
     inkscape:window-maximized="1">
    <inkscape:grid
       type="xygrid"
       id="grid3713" />
  </sodipodi:namedview>
  <metadata
     id="metadata5">
    <rdf:RDF>
      <cc:Work
         rdf:about="">
        <dc:format>image/svg+xml</dc:format>
        <dc:type
           rdf:resource="http://purl.org/dc/dcmitype/StillImage" />
        <dc:title></dc:title>
      </cc:Work>
    </rdf:RDF>
  </metadata>
  <g
     inkscape:label="background"
     inkscape:groupmode="layer"
     id="layer1" />
  <g
     inkscape:groupmode="layer"
     id="layer6"
     inkscape:label="legs"
     style="display:inline">
    <rect
       ry="7.5"
       rx="7.5"
       id="rect4565"
       width="15"
       height="90"
       x="107.33508"
       y="160.29431"
       style="fill:#f8d583;fill-opacity:1;stroke:none;stroke-width:0.26458332" />
    <rect
       transform="scale(-1,1)"
       style="fill:#f8d583;fill-opacity:1;stroke:none;stroke-width:0.26458332"
       y="160.29431"
       x="-92.335083"
       height="90"
       width="15"
       id="rect4567"
       rx="7.5"
       ry="7.5" />
  </g>
  <g
     inkscape:groupmode="layer"
     id="layer3"
     inkscape:label="but"
     style="display:inline">
    <path
       d="m 122.33508,160.2943 a 22.5,22.499998 0 0 1 -11.25,19.48557 22.5,22.499998 0 0 1 -22.499998,0 22.5,22.499998 0 0 1 -11.249999,-19.48557"
       sodipodi:open="true"
       sodipodi:end="3.1415927"
       sodipodi:start="0"
       sodipodi:ry="22.499998"
       sodipodi:rx="22.5"
       sodipodi:cy="160.2943"
       sodipodi:cx="99.835083"
       sodipodi:type="arc"
       style="display:inline;fill:#f8d583;fill-opacity:1;stroke:none;stroke-width:0.32755679"
       id="path4586" />
  </g>
  <g
     inkscape:groupmode="layer"
     id="layer2"
     inkscape:label="body">
    <rect
       id="rect3715"
       width="45"
       height="57.5"
       x="77.335075"
       y="102.7943"
       style="fill:#f8d583;fill-opacity:1;stroke:none;stroke-width:0.26458332" />
  </g>
  <g
     inkscape:groupmode="layer"
     id="layer4"
     inkscape:label="hands">
    <rect
       style="fill:#f8d583;fill-opacity:1;stroke:none;stroke-width:0.26458332"
       y="115.2943"
       x="122.33508"
       height="67.5"
       width="15"
       id="rect4541"
       rx="7.5"
       ry="7.5" />
    <rect
       ry="7.5"
       rx="7.5"
       id="rect4558"
       width="15"
       height="67.5"
       x="-77.335075"
       y="115.2943"
       style="fill:#f8d583;fill-opacity:1;stroke:none;stroke-width:0.26458332"
       transform="scale(-1,1)" />
  </g>
  <g
     inkscape:groupmode="layer"
     id="layer7"
     inkscape:label="trousers"
     style="display:inline">
    <rect
       style="fill:#030040;fill-opacity:1;stroke:none;stroke-width:0.26458332"
       y="160.2943"
       x="107.33508"
       height="90"
       width="15"
       id="rect4572"
       rx="7.5"
       ry="7.5" />
    <rect
       ry="7.5"
       rx="7.5"
       id="rect4574"
       width="15"
       height="90"
       x="-92.335083"
       y="160.29431"
       style="fill:#030040;fill-opacity:1;stroke:none;stroke-width:0.26458332"
       transform="scale(-1,1)" />
    <path
       id="path3721"
       style="display:inline;fill:#030040;fill-opacity:1;stroke:none;stroke-width:0.32755679"
       sodipodi:type="arc"
       sodipodi:cx="99.835083"
       sodipodi:cy="160.2943"
       sodipodi:rx="22.5"
       sodipodi:ry="22.499998"
       sodipodi:start="0"
       sodipodi:end="3.1415927"
       sodipodi:open="true"
       d="m 122.33508,160.2943 a 22.5,22.499998 0 0 1 -11.25,19.48557 22.5,22.499998 0 0 1 -22.499998,0 22.5,22.499998 0 0 1 -11.249999,-19.48557" />
  </g>
  <g
     inkscape:groupmode="layer"
     id="layer5"
     inkscape:label="tshirt"
     style="display:inline">
    <path
       style="fill:#717171;fill-opacity:1;stroke:none;stroke-width:0.99999994"
       d="M 512.64453 398.92578 A 28.346457 28.346457 0 0 0 512.33789 398.65625 A 28.346457 28.346457 0 0 0 510.0332 397.00781 A 28.346457 28.346457 0 0 0 507.57422 395.59766 A 28.346457 28.346457 0 0 0 504.98828 394.44141 A 28.346457 28.346457 0 0 0 502.29883 393.54688 A 28.346457 28.346457 0 0 0 499.53516 392.92578 A 28.346457 28.346457 0 0 0 496.72266 392.58398 A 28.346457 28.346457 0 0 0 494.7168 392.51367 L 466.36914 392.51367 L 466.36914 420.86133 L 466.36914 483.00195 L 519.0625 483.00195 L 519.0625 416.86133 A 28.346457 28.346457 0 0 0 512.64453 398.92578 z "
       id="path4658"
       transform="scale(0.26458333)" />
    <path
       style="fill:#868686;fill-opacity:1;stroke:none;stroke-width:0.99999994"
       d="M 462.36914 388.51367 L 462.36914 416.86133 L 462.36914 483.00195 L 466.36914 483.00195 L 466.36914 420.86133 L 466.36914 392.51367 L 494.7168 392.51367 A 28.346457 28.346457 0 0 1 496.72266 392.58398 A 28.346457 28.346457 0 0 1 499.53516 392.92578 A 28.346457 28.346457 0 0 1 502.29883 393.54688 A 28.346457 28.346457 0 0 1 504.98828 394.44141 A 28.346457 28.346457 0 0 1 507.57422 395.59766 A 28.346457 28.346457 0 0 1 510.0332 397.00781 A 28.346457 28.346457 0 0 1 512.33789 398.65625 A 28.346457 28.346457 0 0 1 512.64453 398.92578 A 28.346457 28.346457 0 0 0 490.7168 388.51367 L 462.36914 388.51367 z "
       id="rect4545"
       transform="scale(0.26458333)" />
    <path
       style="fill:#717171;fill-opacity:1;stroke:none;stroke-width:0.99999994"
       d="M 292.29102 392.51367 L 267.94336 392.51367 A 28.346457 28.346457 0 0 0 265.9375 392.58398 A 28.346457 28.346457 0 0 0 263.12305 392.92578 A 28.346457 28.346457 0 0 0 260.35938 393.54688 A 28.346457 28.346457 0 0 0 257.66992 394.44141 A 28.346457 28.346457 0 0 0 255.08398 395.59766 A 28.346457 28.346457 0 0 0 252.62695 397.00781 A 28.346457 28.346457 0 0 0 250.32227 398.65625 A 28.346457 28.346457 0 0 0 248.19336 400.52734 A 28.346457 28.346457 0 0 0 246.26172 402.59961 A 28.346457 28.346457 0 0 0 244.54688 404.85547 A 28.346457 28.346457 0 0 0 243.06641 407.27148 A 28.346457 28.346457 0 0 0 241.83398 409.82227 A 28.346457 28.346457 0 0 0 240.86328 412.48438 A 28.346457 28.346457 0 0 0 240.16211 415.23047 A 28.346457 28.346457 0 0 0 239.73828 418.03125 A 28.346457 28.346457 0 0 0 239.59766 420.86133 L 239.59766 483.00195 L 292.29102 483.00195 L 292.29102 416.86133 L 292.29102 392.51367 z "
       id="path4655"
       transform="scale(0.26458333)" />
    <path
       style="fill:#868686;fill-opacity:1;stroke:none;stroke-width:0.99999994"
       d="M 263.94336 388.51367 A 28.346457 28.346457 0 0 0 235.59766 416.86133 L 235.59766 483.00195 L 239.59766 483.00195 L 239.59766 420.86133 A 28.346457 28.346457 0 0 1 239.73828 418.03125 A 28.346457 28.346457 0 0 1 240.16211 415.23047 A 28.346457 28.346457 0 0 1 240.86328 412.48438 A 28.346457 28.346457 0 0 1 241.83398 409.82227 A 28.346457 28.346457 0 0 1 243.06641 407.27148 A 28.346457 28.346457 0 0 1 244.54688 404.85547 A 28.346457 28.346457 0 0 1 246.26172 402.59961 A 28.346457 28.346457 0 0 1 248.19336 400.52734 A 28.346457 28.346457 0 0 1 250.32227 398.65625 A 28.346457 28.346457 0 0 1 252.62695 397.00781 A 28.346457 28.346457 0 0 1 255.08398 395.59766 A 28.346457 28.346457 0 0 1 257.66992 394.44141 A 28.346457 28.346457 0 0 1 260.35938 393.54688 A 28.346457 28.346457 0 0 1 263.12305 392.92578 A 28.346457 28.346457 0 0 1 265.9375 392.58398 A 28.346457 28.346457 0 0 1 267.94336 392.51367 L 292.29102 392.51367 L 292.29102 388.51367 L 263.94336 388.51367 z "
       id="path4560"
       transform="scale(0.26458333)" />
    <path
       style="fill:#868686;fill-opacity:1;stroke:none;stroke-width:0.99999994"
       d="M 379.54688 427.48242 L 382.92773 432.36719 L 397.08984 412.11328 L 410.74414 392.61328 L 403.95117 392.60352 L 393.08984 408.11328 L 379.54688 427.48242 z "
       id="path4648"
       transform="scale(0.26458333)" />
    <path
       style="fill:#717171;fill-opacity:1;stroke:none;stroke-width:0.99999994"
       d="M 462.36914 392.51562 L 404.01172 392.51562 L 403.95117 392.60352 L 410.74414 392.61328 L 397.08984 412.11328 L 382.92773 432.36719 L 379.54688 427.48242 L 378.92773 428.36719 L 365.38867 408.81055 L 354.08984 392.51562 L 296.29102 392.51562 L 296.29102 605.83789 L 462.36914 605.83789 L 462.36914 392.51562 z "
       id="path4646"
       transform="scale(0.26458333)" />
    <path
       style="fill:#868686;fill-opacity:1;stroke:none;stroke-width:0.99999994"
       d="M 351.31641 388.51562 L 378.50977 388.57031 L 406.74414 388.61328 L 404.01172 392.51562 L 462.36914 392.51562 L 462.36914 388.51562 L 351.31641 388.51562 z "
       id="path4644"
       transform="scale(0.26458333)" />
    <path
       style="fill:#868686;fill-opacity:1;stroke:none;stroke-width:0.99999994"
       d="M 292.29102 388.51562 L 292.29102 605.83789 L 296.29102 605.83789 L 296.29102 392.51562 L 354.08984 392.51562 L 351.31641 388.51562 L 292.29102 388.51562 z "
       id="rect4562"
       transform="scale(0.26458333)" />
  </g>
  <g
     inkscape:groupmode="layer"
     id="layer8"
     inkscape:label="head"
     style="display:inline">
    <circle
       style="fill:#f8d583;fill-opacity:1;stroke:none;stroke-width:0.26458332"
       id="path4581"
       cx="99.835075"
       cy="77.794304"
       r="25" />
    <path
       style="fill:#754a1b;fill-opacity:1;stroke:none;stroke-width:0.99999994"
       d="M 446.43359 229.70117 A 94.488189 94.488189 0 0 0 442.20117 225.75781 A 94.488189 94.488189 0 0 0 434.68164 220.04102 A 94.488189 94.488189 0 0 0 426.62891 215.10547 A 94.488189 94.488189 0 0 0 418.125 210.99609 A 94.488189 94.488189 0 0 0 409.25195 207.75781 A 94.488189 94.488189 0 0 0 400.10156 205.42188 A 94.488189 94.488189 0 0 0 390.76172 204.00977 A 94.488189 94.488189 0 0 0 381.33008 203.53711 A 94.488189 94.488189 0 0 0 374.64648 203.77344 A 94.488189 94.488189 0 0 0 365.26953 204.91211 A 94.488189 94.488189 0 0 0 356.05469 206.98047 A 94.488189 94.488189 0 0 0 347.0918 209.95898 A 94.488189 94.488189 0 0 0 338.4707 213.81641 A 94.488189 94.488189 0 0 0 330.27734 218.51758 A 94.488189 94.488189 0 0 0 322.59375 224.00977 A 94.488189 94.488189 0 0 0 315.49805 230.24414 A 94.488189 94.488189 0 0 0 309.06055 237.1543 A 94.488189 94.488189 0 0 0 303.3457 244.67383 A 94.488189 94.488189 0 0 0 298.4082 252.72656 A 94.488189 94.488189 0 0 0 294.30078 261.23047 A 94.488189 94.488189 0 0 0 291.06055 270.10352 A 94.488189 94.488189 0 0 0 288.72461 279.25391 A 94.488189 94.488189 0 0 0 287.3125 288.5918 A 94.488189 94.488189 0 0 0 287.04102 294.02539 L 471.81836 294.02539 A 94.488189 94.488189 0 0 0 446.43359 229.70117 z "
       id="path4610"
       transform="scale(0.26458333)" />
    <path
       style="fill:#ac753f;fill-opacity:1;stroke:none;stroke-width:0.99999994"
       d="M 377.33008 199.53711 A 94.488189 94.488189 0 0 0 282.8418 294.02539 L 287.04102 294.02539 A 94.488189 94.488189 0 0 1 287.3125 288.5918 A 94.488189 94.488189 0 0 1 288.72461 279.25391 A 94.488189 94.488189 0 0 1 291.06055 270.10352 A 94.488189 94.488189 0 0 1 294.30078 261.23047 A 94.488189 94.488189 0 0 1 298.4082 252.72656 A 94.488189 94.488189 0 0 1 303.3457 244.67383 A 94.488189 94.488189 0 0 1 309.06055 237.1543 A 94.488189 94.488189 0 0 1 315.49805 230.24414 A 94.488189 94.488189 0 0 1 322.59375 224.00977 A 94.488189 94.488189 0 0 1 330.27734 218.51758 A 94.488189 94.488189 0 0 1 338.4707 213.81641 A 94.488189 94.488189 0 0 1 347.0918 209.95898 A 94.488189 94.488189 0 0 1 356.05469 206.98047 A 94.488189 94.488189 0 0 1 365.26953 204.91211 A 94.488189 94.488189 0 0 1 374.64648 203.77344 A 94.488189 94.488189 0 0 1 381.33008 203.53711 A 94.488189 94.488189 0 0 1 390.76172 204.00977 A 94.488189 94.488189 0 0 1 400.10156 205.42188 A 94.488189 94.488189 0 0 1 409.25195 207.75781 A 94.488189 94.488189 0 0 1 418.125 210.99609 A 94.488189 94.488189 0 0 1 426.62891 215.10547 A 94.488189 94.488189 0 0 1 434.68164 220.04102 A 94.488189 94.488189 0 0 1 442.20117 225.75781 A 94.488189 94.488189 0 0 1 446.43359 229.70117 A 94.488189 94.488189 0 0 0 377.33008 199.53711 z "
       id="circle4589"
       transform="scale(0.26458333)" />
    <circle
       style="fill:#000000;fill-opacity:1;stroke:none;stroke-width:0.26458332"
       id="path4591"
       cx="93.834862"
       cy="86.794525"
       r="3" />
    <use
       x="0"
       y="0"
       xlink:href="#path4591"
       id="use4599"
       transform="translate(11.999998)"
       width="100%"
       height="100%" />
  </g>
</svg>
