<?xml version="1.0" encoding="UTF-8" standalone="no"?>
<!-- Created with Inkscape (http://www.inkscape.org/) -->

<svg
   xmlns:dc="http://purl.org/dc/elements/1.1/"
   xmlns:cc="http://creativecommons.org/ns#"
   xmlns:rdf="http://www.w3.org/1999/02/22-rdf-syntax-ns#"
   xmlns:svg="http://www.w3.org/2000/svg"
   xmlns="http://www.w3.org/2000/svg"
   xmlns:xlink="http://www.w3.org/1999/xlink"
   xmlns:sodipodi="http://sodipodi.sourceforge.net/DTD/sodipodi-0.dtd"
   xmlns:inkscape="http://www.inkscape.org/namespaces/inkscape"
   width="210mm"
   height="297mm"
   viewBox="0 0 210 297"
   version="1.1"
   id="svg8"
   inkscape:version="0.92.4 (5da689c313, 2019-01-14)"
   sodipodi:docname="minime2.svg">
  <defs
     id="defs2">
    <inkscape:perspective
       sodipodi:type="inkscape:persp3d"
       inkscape:vp_x="192.88225 : 99 : 1"
       inkscape:vp_y="105 : 1098.9999 : 1"
       inkscape:vp_z="215.17521 : 84.968349 : 1"
       inkscape:persp3d-origin="105 : 99 : 1"
       id="perspective4907" />
  </defs>
  <sodipodi:namedview
     id="base"
     pagecolor="#ffffff"
     bordercolor="#666666"
     borderopacity="1.0"
     inkscape:pageopacity="0.0"
     inkscape:pageshadow="2"
     inkscape:zoom="0.64"
     inkscape:cx="539.09201"
     inkscape:cy="622.75195"
     inkscape:document-units="mm"
     inkscape:current-layer="layer1"
     showgrid="false"
     showguides="true"
     inkscape:snap-to-guides="true"
     inkscape:snap-grids="false"
     inkscape:snap-bbox="false"
     inkscape:bbox-nodes="true"
     inkscape:snap-bbox-edge-midpoints="false"
     inkscape:snap-nodes="false"
     inkscape:snap-others="false"
     inkscape:snap-object-midpoints="false"
     inkscape:guide-bbox="true"
     inkscape:bbox-paths="false"
     inkscape:snap-page="false"
     inkscape:window-width="1366"
     inkscape:window-height="705"
     inkscape:window-x="-8"
     inkscape:window-y="-8"
     inkscape:window-maximized="1">
    <inkscape:grid
       type="xygrid"
       id="grid3713" />
  </sodipodi:namedview>
  <metadata
     id="metadata5">
    <rdf:RDF>
      <cc:Work
         rdf:about="">
        <dc:format>image/svg+xml</dc:format>
        <dc:type
           rdf:resource="http://purl.org/dc/dcmitype/StillImage" />
        <dc:title></dc:title>
      </cc:Work>
    </rdf:RDF>
  </metadata>
  <g
     inkscape:label="background"
     inkscape:groupmode="layer"
     id="layer1"
     style="display:inline">
    <path
       style="fill:#dcdcdc;fill-opacity:1;stroke:none;stroke-width:1.88976383;stroke-linejoin:round;stroke-miterlimit:4;stroke-dasharray:none;stroke-opacity:1"
       d="M 630.13477 511.47656 C 630.13432 511.41715 630.13522 511.33395 630.13477 511.27539 C 630.11802 511.27535 630.10269 511.26953 630.08594 511.26953 L 630.08594 511.4707 C 630.10226 511.47235 630.11845 511.47488 630.13477 511.47656 z "
       id="path5001"
       transform="scale(0.26458333)" />
    <path
       style="fill:#dcdcdc;fill-opacity:1;stroke:none;stroke-width:1.88976383;stroke-linejoin:round;stroke-miterlimit:4;stroke-dasharray:none;stroke-opacity:1"
       d="M 630.08594 551.07422 L 630.08594 551.27539 C 630.1027 551.27539 630.11802 551.26957 630.13477 551.26953 C 630.13507 551.21104 630.13445 551.12769 630.13477 551.06836 C 630.11845 551.07004 630.10226 551.07257 630.08594 551.07422 z "
       id="path4997"
       transform="scale(0.26458333)" />
    <path
       style="fill:#dcdcdc;fill-opacity:1;stroke:none;stroke-width:1.88976383;stroke-linejoin:round;stroke-miterlimit:4;stroke-dasharray:none;stroke-opacity:1"
       d="M 628.13477 551.26953 C 628.19601 539.62105 628.22578 522.89819 628.13477 511.27539 C 628.11802 511.27535 628.10269 511.26953 628.08594 511.26953 L 628.08594 551.27539 C 628.1027 551.27539 628.11802 551.26957 628.13477 551.26953 z "
       id="path4995"
       transform="scale(0.26458333)" />
    <path
       style="fill:#dcdcdc;fill-opacity:1;stroke:none;stroke-width:1.88976383;stroke-linejoin:round;stroke-miterlimit:4;stroke-dasharray:none;stroke-opacity:1"
       d="M 630.08594 562.00586 C 630.08635 561.93635 630.11835 554.39122 630.13477 551.26953 C 630.11802 551.26957 630.1027 551.27539 630.08594 551.27539 L 630.08594 551.07422 C 629.4349 551.13985 628.80272 551.26786 628.13477 551.26953 C 628.11804 554.44971 628.08594 562.20703 628.08594 562.20703 C 628.77104 562.20702 629.41193 562.04972 630.08594 562.00586 z "
       id="path4993"
       transform="scale(0.26458333)" />
    <path
       style="fill:#dcdcdc;fill-opacity:1;stroke:none;stroke-width:1.88976383;stroke-linejoin:round;stroke-miterlimit:4;stroke-dasharray:none;stroke-opacity:1"
       d="M 628.08594 500.33594 C 628.1506 500.3111 628.10983 508.09081 628.13477 511.27539 C 628.80267 511.27706 629.43494 511.40508 630.08594 511.4707 L 630.08594 511.26953 C 630.10269 511.26953 630.11802 511.27535 630.13477 511.27539 C 630.11029 508.14938 630.14859 500.58289 630.08594 500.53711 C 629.41193 500.49325 628.77104 500.33595 628.08594 500.33594 z "
       id="path4979"
       transform="scale(0.26458333)" />
    <path
       sodipodi:nodetypes="ccccc"
       inkscape:connector-curvature="0"
       id="path4878"
       d="M 55.270852,145.37422 H 170.39305 l 16.70605,9.28728 H 38.564805 Z"
       style="display:inline;fill:#452a0c;fill-opacity:1;stroke:none;stroke-width:0.31558394" />
    <use
       style="display:inline"
       height="100%"
       width="100%"
       transform="matrix(1,0,0,1.5342577,-88.808122,-134.49074)"
       id="use4890"
       xlink:href="#use4865"
       y="0"
       x="0" />
    <use
       x="0"
       y="0"
       xlink:href="#use4890"
       id="use4895"
       transform="translate(146.2713,4.1994683e-6)"
       width="100%"
       height="100%" />
    <use
       x="0"
       y="0"
       xlink:href="#use4895"
       id="use4897"
       transform="translate(-16.706048,-9.28728)"
       width="100%"
       height="100%" />
    <path
       style="fill:#dcdcdc;fill-opacity:1;stroke:none;stroke-width:1.88976383;stroke-linejoin:round;stroke-miterlimit:4;stroke-dasharray:none;stroke-opacity:1"
       d="M 630.13477 551.06836 C 630.13445 551.12769 630.13507 551.21104 630.13477 551.26953 C 631.49814 551.26612 632.83086 551.13242 634.11719 550.86914 C 635.41932 550.60262 636.67651 550.20928 637.87305 549.70312 C 639.06958 549.19697 640.2054 548.57836 641.26953 547.85938 C 642.33366 547.14039 643.32556 546.32102 644.23047 545.41602 C 645.13538 544.51102 645.95495 543.51928 646.67383 542.45508 C 647.39271 541.39088 648.01154 540.25518 648.51758 539.05859 C 649.02362 537.86201 649.41525 536.60489 649.68164 535.30273 C 649.94803 534.00058 650.08797 532.6524 650.08789 531.27148 C 650.08783 529.89066 649.94812 528.54229 649.68164 527.24023 C 649.41516 525.93818 649.02367 524.68281 648.51758 523.48633 C 648.01148 522.28985 647.39078 521.15198 646.67188 520.08789 C 645.95297 519.0238 645.13537 518.03381 644.23047 517.12891 C 643.32557 516.224 642.33362 515.40445 641.26953 514.68555 C 640.20544 513.96664 639.06952 513.34789 637.87305 512.8418 C 636.67657 512.3357 635.41924 511.94226 634.11719 511.67578 C 632.83094 511.41253 631.49804 511.2788 630.13477 511.27539 C 630.13522 511.33395 630.13432 511.41715 630.13477 511.47656 C 640.20471 512.51657 648.08747 520.92671 648.08789 531.27148 C 648.08846 541.61697 640.20536 550.02822 630.13477 551.06836 z "
       id="path4999"
       transform="scale(0.26458333)" />
    <use
       x="0"
       y="0"
       xlink:href="#use4897"
       id="use4899"
       transform="translate(-112.85921)"
       width="100%"
       height="100%" />
    <rect
       style="fill:#b0ffff;fill-opacity:1;stroke:#000000;stroke-width:1;stroke-opacity:1;stroke-miterlimit:4;stroke-dasharray:none;stroke-linejoin:round"
       id="rect4901"
       width="102.4"
       height="57.599998"
       x="55.270851"
       y="83.276093"
       rx="5"
       ry="5" />
    <path
       style="display:inline;fill:#a1764b;fill-opacity:1;stroke:none;stroke-width:0.28703561"
       d="m 58.799511,145.37422 h 95.235939 c 0,0 -2.64098,4.66457 -1.15068,6.10877 1.49031,1.4442 4.72989,3.17851 4.72989,3.17851 H 44.979274 Z"
       id="path4905"
       inkscape:connector-curvature="0"
       sodipodi:nodetypes="cczccc" />
    <path
       style="fill:#acacac;fill-opacity:1;stroke:none;stroke-width:1.88976383;stroke-linejoin:round;stroke-miterlimit:4;stroke-dasharray:none;stroke-opacity:1"
       d="M 630.08594 500.53711 C 630.14859 500.58289 630.11029 508.14938 630.13477 511.27539 C 631.49804 511.2788 632.83094 511.41253 634.11719 511.67578 C 635.41924 511.94226 636.67657 512.3357 637.87305 512.8418 C 639.06952 513.34789 640.20544 513.96664 641.26953 514.68555 C 642.33362 515.40445 643.32557 516.224 644.23047 517.12891 C 645.13537 518.03381 645.95297 519.0238 646.67188 520.08789 C 647.39078 521.15198 648.01148 522.28985 648.51758 523.48633 C 649.02367 524.68281 649.41516 525.93818 649.68164 527.24023 C 649.94812 528.54229 650.08783 529.89066 650.08789 531.27148 C 650.08797 532.6524 649.94803 534.00058 649.68164 535.30273 C 649.41525 536.60489 649.02362 537.86201 648.51758 539.05859 C 648.01154 540.25518 647.39271 541.39088 646.67383 542.45508 C 645.95495 543.51928 645.13538 544.51102 644.23047 545.41602 C 643.32556 546.32102 642.33366 547.14039 641.26953 547.85938 C 640.2054 548.57836 639.06958 549.19697 637.87305 549.70312 C 636.67651 550.20928 635.41932 550.60262 634.11719 550.86914 C 632.83086 551.13242 631.49814 551.26612 630.13477 551.26953 C 630.11835 554.39122 630.08635 561.93635 630.08594 562.00586 C 646.22055 560.95585 659.0213 547.67151 659.02148 531.27148 C 659.0213 514.87145 646.22055 501.58711 630.08594 500.53711 z "
       id="path4991"
       transform="scale(0.26458333)" />
    <path
       style="fill:#acacac;fill-opacity:1;stroke:none;stroke-width:3.77952766;stroke-linejoin:round;stroke-miterlimit:4;stroke-dasharray:none;stroke-opacity:1"
       d="M 630.27148 492.93359 C 629.84808 492.68545 629.51709 492.30965 629.06055 492.11719 C 627.70311 491.54494 626.20907 491.22852 624.63867 491.22852 L 590.9668 491.22852 C 589.3964 491.22852 587.90432 491.54494 586.54688 492.11719 C 585.18943 492.68943 583.96808 493.51824 582.94336 494.54297 C 581.91863 495.56769 581.08982 496.78709 580.51758 498.14453 C 579.94533 499.50197 579.62891 500.99601 579.62891 502.56641 L 579.62891 564.96289 C 579.62891 566.53328 579.94533 568.02732 580.51758 569.38477 C 580.71018 569.84165 581.08562 570.17397 581.33398 570.59766 C 583.0165 571.58393 584.86785 572.30273 586.9668 572.30273 L 620.63867 572.30273 C 626.92025 572.30273 631.97656 567.24447 631.97656 560.96289 L 631.97656 498.56641 C 631.97656 496.46785 631.25742 494.6159 630.27148 492.93359 z "
       id="path4977"
       transform="scale(0.26458333)" />
    <path
       style="fill:#dcdcdc;fill-opacity:1;stroke:none;stroke-width:3.77952766;stroke-linejoin:round;stroke-miterlimit:4;stroke-dasharray:none;stroke-opacity:1"
       d="M 586.9668 487.22852 C 580.68522 487.22852 575.62891 492.28483 575.62891 498.56641 L 575.62891 560.96289 C 575.62891 565.14552 577.98119 568.63229 581.33398 570.59766 C 581.08562 570.17397 580.71018 569.84165 580.51758 569.38477 C 579.94533 568.02732 579.62891 566.53328 579.62891 564.96289 L 579.62891 502.56641 C 579.62891 500.99601 579.94533 499.50197 580.51758 498.14453 C 581.08982 496.78709 581.91863 495.56769 582.94336 494.54297 C 583.96808 493.51824 585.18943 492.68943 586.54688 492.11719 C 587.90432 491.54494 589.3964 491.22852 590.9668 491.22852 L 624.63867 491.22852 C 626.20907 491.22852 627.70311 491.54494 629.06055 492.11719 C 629.51709 492.30965 629.84808 492.68545 630.27148 492.93359 C 628.30625 489.58028 624.82169 487.22852 620.63867 487.22852 L 586.9668 487.22852 z "
       id="rect4965"
       transform="scale(0.26458333)" />
  </g>
  <g
     inkscape:groupmode="layer"
     id="layer6"
     inkscape:label="legs"
     style="display:inline">
    <rect
       style="fill:#f8d583;fill-opacity:1;stroke:none;stroke-width:0.26458332"
       y="142.73836"
       x="113.38271"
       height="90"
       width="15"
       id="rect4666"
       rx="7.5"
       ry="7.5" />
    <rect
       ry="7.5"
       rx="7.5"
       id="rect4668"
       width="15"
       height="90"
       x="-98.382706"
       y="142.73836"
       style="fill:#f8d583;fill-opacity:1;stroke:none;stroke-width:0.26458332"
       transform="scale(-1,1)" />
  </g>
  <g
     inkscape:groupmode="layer"
     id="layer3"
     inkscape:label="but"
     style="display:inline">
    <path
       id="path4670"
       style="display:inline;fill:#f8d583;fill-opacity:1;stroke:none;stroke-width:0.32755679"
       sodipodi:type="arc"
       sodipodi:cx="105.88271"
       sodipodi:cy="163.3181"
       sodipodi:rx="22.5"
       sodipodi:ry="22.499998"
       sodipodi:start="0"
       sodipodi:end="3.1415927"
       sodipodi:open="true"
       d="m 128.38271,163.3181 a 22.5,22.499998 0 0 1 -11.25,19.48557 22.5,22.499998 0 0 1 -22.499997,0 22.5,22.499998 0 0 1 -11.25,-19.48557" />
  </g>
  <g
     inkscape:groupmode="layer"
     id="layer2"
     inkscape:label="body"
     style="display:inline">
    <rect
       style="fill:#f8d583;fill-opacity:1;stroke:none;stroke-width:0.26458332"
       y="105.81811"
       x="83.382698"
       height="57.5"
       width="45"
       id="rect4672" />
    <rect
       id="rect4723"
       width="43"
       height="56.5"
       x="84.441032"
       y="106.87643"
       style="fill:#b09453;fill-opacity:1;stroke:none;stroke-width:0.26458332" />
  </g>
  <g
     inkscape:groupmode="layer"
     id="layer4"
     inkscape:label="hands">
    <path
       style="fill:#f8d583;fill-opacity:1;stroke:none;stroke-width:0.99999994"
       d="M 452.63086 566.70312 C 456.25775 571.12274 461.20792 574.52787 467.17578 576.12695 C 482.34462 580.19143 497.8281 571.25087 501.89258 556.08203 L 520.23438 487.63086 C 523.22608 476.46565 519.13378 465.16685 510.73633 458.33984 C 511.71812 459.53645 512.654 460.77262 513.42578 462.10938 C 514.33152 463.67816 515.08575 465.33337 515.67773 467.05273 C 516.26972 468.7721 516.6994 470.55479 516.95117 472.37891 C 517.20294 474.20302 517.27702 476.06814 517.16211 477.95117 C 517.0472 479.8342 516.74243 481.73475 516.23438 483.63086 L 497.89258 552.08203 C 497.38452 553.97814 496.69747 555.77859 495.85547 557.4668 C 495.01347 559.15501 494.01681 560.7317 492.88672 562.18555 C 491.75662 563.6394 490.49345 564.96908 489.12109 566.16211 C 487.74874 567.35513 486.268 568.41067 484.69922 569.31641 C 483.13044 570.22214 481.47328 570.97833 479.75391 571.57031 C 478.03454 572.1623 476.25185 572.59003 474.42773 572.8418 C 472.60362 573.09356 470.7385 573.1696 468.85547 573.05469 C 466.97244 572.93977 465.07189 572.63501 463.17578 572.12695 C 461.27968 571.61889 459.48118 570.93184 457.79297 570.08984 C 456.10476 569.24785 454.52612 568.25119 453.07227 567.12109 C 452.91089 566.99565 452.78917 566.8318 452.63086 566.70312 z "
       id="path4747"
       transform="scale(0.26458333)" />
    <path
       style="fill:#b09453;fill-opacity:1;stroke:none;stroke-width:0.99999994"
       d="M 452.63086 566.70312 C 452.78917 566.8318 452.91089 566.99565 453.07227 567.12109 C 454.52612 568.25119 456.10476 569.24785 457.79297 570.08984 C 459.48118 570.93184 461.27968 571.61889 463.17578 572.12695 C 465.07189 572.63501 466.97244 572.93977 468.85547 573.05469 C 470.7385 573.1696 472.60362 573.09356 474.42773 572.8418 C 476.25185 572.59003 478.03454 572.1623 479.75391 571.57031 C 481.47328 570.97833 483.13044 570.22214 484.69922 569.31641 C 486.268 568.41067 487.74874 567.35513 489.12109 566.16211 C 490.49345 564.96908 491.75662 563.6394 492.88672 562.18555 C 494.01681 560.7317 495.01347 559.15501 495.85547 557.4668 C 496.69747 555.77859 497.38452 553.97814 497.89258 552.08203 L 516.23438 483.63086 C 516.74243 481.73475 517.0472 479.8342 517.16211 477.95117 C 517.27702 476.06814 517.20294 474.20302 516.95117 472.37891 C 516.6994 470.55479 516.26972 468.7721 515.67773 467.05273 C 515.08575 465.33337 514.33152 463.67816 513.42578 462.10938 C 512.654 460.77262 511.71812 459.53645 510.73633 458.33984 C 507.72516 455.89181 504.19504 453.98683 500.19141 452.91406 C 485.02257 448.84958 469.53713 457.79015 465.47266 472.95898 L 447.13086 541.41016 C 444.66546 550.61114 447.03908 559.88916 452.63086 566.70312 z "
       id="rect4674"
       transform="scale(0.26458333)" />
    <path
       style="fill:#f8d583;fill-opacity:1;stroke:none;stroke-width:0.99999994"
       d="M 289.64258 458.23633 C 281.24512 465.06333 277.15282 476.36214 280.14453 487.52734 L 298.48633 555.97852 C 302.55081 571.14735 318.03429 580.08596 333.20312 576.02148 C 339.17344 574.42174 344.1247 571.01605 347.75195 566.59375 C 347.5922 566.72366 347.46952 566.88901 347.30664 567.01562 C 345.85279 568.14572 344.27415 569.14433 342.58594 569.98633 C 340.89773 570.82832 339.09923 571.51342 337.20312 572.02148 C 335.30702 572.52954 333.40647 572.83626 331.52344 572.95117 C 329.64041 573.06609 327.77529 572.99005 325.95117 572.73828 C 324.12705 572.48651 322.34437 572.05878 320.625 571.4668 C 318.90563 570.87481 317.25042 570.11863 315.68164 569.21289 C 314.11286 568.30715 312.63017 567.25162 311.25781 566.05859 C 309.88545 564.86557 308.62228 563.53588 307.49219 562.08203 C 306.36209 560.62818 305.36543 559.04954 304.52344 557.36133 C 303.68144 555.67312 302.99439 553.87462 302.48633 551.97852 L 284.14453 483.52734 C 283.63647 481.63124 283.33171 479.73069 283.2168 477.84766 C 283.10188 475.96463 283.17792 474.09951 283.42969 472.27539 C 283.68145 470.45127 284.10919 468.66663 284.70117 466.94727 C 285.29316 465.2279 286.04934 463.57269 286.95508 462.00391 C 287.72679 460.66726 288.66089 459.43284 289.64258 458.23633 z "
       id="path4742"
       transform="scale(0.26458333)" />
    <path
       style="fill:#b09453;fill-opacity:1;stroke:none;stroke-width:0.99999994"
       d="M 289.64258 458.23633 C 288.66089 459.43284 287.72679 460.66726 286.95508 462.00391 C 286.04934 463.57269 285.29316 465.2279 284.70117 466.94727 C 284.10919 468.66663 283.68145 470.45127 283.42969 472.27539 C 283.17792 474.09951 283.10188 475.96463 283.2168 477.84766 C 283.33171 479.73069 283.63647 481.63124 284.14453 483.52734 L 302.48633 551.97852 C 302.99439 553.87462 303.68144 555.67312 304.52344 557.36133 C 305.36543 559.04954 306.36209 560.62818 307.49219 562.08203 C 308.62228 563.53588 309.88545 564.86557 311.25781 566.05859 C 312.63017 567.25162 314.11286 568.30715 315.68164 569.21289 C 317.25042 570.11863 318.90563 570.87481 320.625 571.4668 C 322.34437 572.05878 324.12705 572.48651 325.95117 572.73828 C 327.77529 572.99005 329.64041 573.06609 331.52344 572.95117 C 333.40647 572.83626 335.30702 572.52954 337.20312 572.02148 C 339.09923 571.51342 340.89773 570.82832 342.58594 569.98633 C 344.27415 569.14433 345.85279 568.14572 347.30664 567.01562 C 347.46952 566.88901 347.5922 566.72366 347.75195 566.59375 C 353.34049 559.78027 355.71278 550.50321 353.24805 541.30469 L 334.90625 472.85352 C 330.84177 457.68468 315.35829 448.74607 300.18945 452.81055 C 296.18582 453.88332 292.65375 455.78829 289.64258 458.23633 z "
       id="rect4676"
       transform="scale(0.26458333)" />
  </g>
  <g
     inkscape:groupmode="layer"
     id="layer7"
     inkscape:label="trousers"
     style="display:inline">
    <rect
       ry="7.5"
       rx="7.5"
       id="rect4678"
       width="15"
       height="90"
       x="113.38271"
       y="142.73836"
       style="fill:#030040;fill-opacity:1;stroke:none;stroke-width:0.26458332" />
    <rect
       transform="scale(-1,1)"
       style="fill:#030040;fill-opacity:1;stroke:none;stroke-width:0.26458332"
       y="142.73837"
       x="-98.382706"
       height="90"
       width="15"
       id="rect4680"
       rx="7.5"
       ry="7.5" />
    <path
       style="display:inline;fill:#452a0c;fill-opacity:1;stroke:none;stroke-width:0.15062068"
       d="m 83.198582,181.84935 h 45.368268 l 1.06907,6.61458 H 82.129504 Z"
       id="rect4842"
       inkscape:connector-curvature="0"
       sodipodi:nodetypes="ccccc" />
    <path
       d="m 128.38271,163.3181 a 22.5,22.499998 0 0 1 -11.25,19.48557 22.5,22.499998 0 0 1 -22.499997,0 22.5,22.499998 0 0 1 -11.25,-19.48557"
       sodipodi:open="true"
       sodipodi:end="3.1415927"
       sodipodi:start="0"
       sodipodi:ry="22.499998"
       sodipodi:rx="22.5"
       sodipodi:cy="163.3181"
       sodipodi:cx="105.88271"
       sodipodi:type="arc"
       style="display:inline;fill:#030040;fill-opacity:1;stroke:none;stroke-width:0.32755679"
       id="path4682" />
    <rect
       style="display:inline;fill:#452a0c;fill-opacity:1;stroke:none;stroke-width:0.28649384"
       id="rect4858"
       width="2.2629929"
       height="50.889023"
       x="83.198586"
       y="181.84935" />
    <use
       x="0"
       y="0"
       xlink:href="#rect4858"
       id="use4863"
       transform="translate(42.921143,-1.5258789e-5)"
       width="100%"
       height="100%" />
    <use
       x="0"
       y="0"
       xlink:href="#use4863"
       id="use4865"
       transform="translate(1.2531986,6.6145953)"
       width="100%"
       height="100%" />
    <use
       x="0"
       y="0"
       xlink:href="#use4865"
       id="use4867"
       transform="translate(-45.243423)"
       width="100%"
       height="100%" />
  </g>
  <g
     inkscape:groupmode="layer"
     id="layer5"
     inkscape:label="tshirt"
     style="display:inline">
    <path
       style="fill:#868686;fill-opacity:1;stroke:none;stroke-width:0.99999994"
       d="m 483.86719,408.8418 v 0.002 l 27.38086,7.33594 a 28.346457,28.346457 0 0 1 1.91992,0.58789 28.346457,28.346457 0 0 1 2.62891,1.05664 28.346457,28.346457 0 0 0 -2.62891,-1.0586 28.346457,28.346457 0 0 0 -1.91992,-0.58789 z"
       id="path4737"
       transform="scale(0.26458333)"
       inkscape:connector-curvature="0" />
    <path
       style="fill:#717171;fill-opacity:1;stroke:none;stroke-width:0.99999994"
       d="M 512.61133,505.1543 528.46289,446 a 28.346457,28.346457 0 0 0 0.5918,-2.77148 28.346457,28.346457 0 0 0 0.31445,-2.81641 28.346457,28.346457 0 0 0 0.0312,-2.83203 28.346457,28.346457 0 0 0 -0.25391,-2.82227 28.346457,28.346457 0 0 0 -0.53125,-2.7832 28.346457,28.346457 0 0 0 -0.80859,-2.7168 28.346457,28.346457 0 0 0 -0.90039,-2.24414 v -0.002 a 28.346457,28.346457 0 0 0 -1.29102,-2.52149 28.346457,28.346457 0 0 0 -1.53711,-2.38085 28.346457,28.346457 0 0 0 -1.76757,-2.21485 28.346457,28.346457 0 0 0 -1.97852,-2.02734 28.346457,28.346457 0 0 0 -2.17187,-1.82031 28.346457,28.346457 0 0 0 -2.3418,-1.59571 28.346457,28.346457 0 0 0 -2.49024,-1.35156 28.346457,28.346457 0 0 0 -2.61132,-1.09766 28.346457,28.346457 0 0 0 -2.29688,-0.72265 l -24.64844,-6.60352 -6.07031,22.64844 -17.11719,63.88672 3.86329,1.03515 v 0.002 z m -28.74414,-96.3125 27.38086,7.33593 a 28.346457,28.346457 0 0 1 1.91992,0.58789 28.346457,28.346457 0 0 1 2.62891,1.0586 28.346457,28.346457 0 0 0 -2.62891,-1.05664 28.346457,28.346457 0 0 0 -1.91992,-0.58789 l -27.38086,-7.33594 z m 34.4375,10.29687 a 28.346457,28.346457 0 0 1 1.77539,1.17188 28.346457,28.346457 0 0 0 -1.77539,-1.17188 z m 4.56445,3.34571 a 28.346457,28.346457 0 0 1 1.27734,1.27148 28.346457,28.346457 0 0 0 -1.27734,-1.27148 z"
       id="path4735"
       transform="scale(0.26458333)"
       inkscape:connector-curvature="0" />
    <path
       style="fill:#868686;fill-opacity:1;stroke:none;stroke-width:0.99999994"
       d="m 485.03906,399.94336 -1.26758,4.73242 24.64844,6.60352 a 28.346457,28.346457 0 0 1 2.29688,0.72265 28.346457,28.346457 0 0 1 2.61132,1.09766 28.346457,28.346457 0 0 1 2.49024,1.35156 28.346457,28.346457 0 0 1 2.3418,1.59571 28.346457,28.346457 0 0 1 2.17187,1.82031 28.346457,28.346457 0 0 1 1.97852,2.02734 28.346457,28.346457 0 0 1 1.76757,2.21485 28.346457,28.346457 0 0 1 1.53711,2.38085 28.346457,28.346457 0 0 1 1.29102,2.52149 v 0.002 a 28.346457,28.346457 0 0 1 0.90039,2.24414 28.346457,28.346457 0 0 1 0.80859,2.7168 28.346457,28.346457 0 0 1 0.53125,2.7832 28.346457,28.346457 0 0 1 0.25391,2.82227 28.346457,28.346457 0 0 1 -0.0312,2.83203 28.346457,28.346457 0 0 1 -0.31445,2.81641 28.346457,28.346457 0 0 1 -0.5918,2.77148 l -15.85156,59.1543 2.73242,0.73242 L 532.46289,442 a 28.346457,28.346457 0 0 0 -1.55664,-18.98633 v -0.002 A 28.346457,28.346457 0 0 0 512.41992,407.2793 Z m 2.82813,4.89844 27.38086,7.33593 a 28.346457,28.346457 0 0 1 1.91992,0.58789 28.346457,28.346457 0 0 1 2.62891,1.0586 28.346457,28.346457 0 0 0 -2.62891,-1.05664 28.346457,28.346457 0 0 0 -1.91992,-0.58789 l -27.38086,-7.33594 z"
       id="path4684"
       transform="scale(0.26458333)"
       inkscape:connector-curvature="0" />
    <path
       style="fill:#717171;fill-opacity:1;stroke:none;stroke-width:0.99999994"
       d="m 316.61133,404.57227 -24.65039,6.60156 a 28.346457,28.346457 0 0 0 -2.69727,0.86914 28.346457,28.346457 0 0 0 -2.5957,1.13476 28.346457,28.346457 0 0 0 -2.4707,1.38868 28.346457,28.346457 0 0 0 -2.32032,1.62695 28.346457,28.346457 0 0 0 -2.14453,1.85156 28.346457,28.346457 0 0 0 -1.94922,2.05469 28.346457,28.346457 0 0 0 -1.73632,2.24023 28.346457,28.346457 0 0 0 -1.50196,2.40235 28.346457,28.346457 0 0 0 -1.25586,2.54101 28.346457,28.346457 0 0 0 -0.99414,2.65235 28.346457,28.346457 0 0 0 -0.72656,2.73828 28.346457,28.346457 0 0 0 -0.44922,2.79883 28.346457,28.346457 0 0 0 -0.16602,2.82812 28.346457,28.346457 0 0 0 0.11524,2.83008 28.346457,28.346457 0 0 0 0.39844,2.80664 28.346457,28.346457 0 0 0 0.45117,1.95508 l 15.85156,59.1543 1.13086,-0.30274 50.89844,-13.63867 -17.11914,-63.88672 z"
       id="path4730"
       transform="scale(0.26458333)"
       inkscape:connector-curvature="0" />
    <path
       style="fill:#868686;fill-opacity:1;stroke:none;stroke-width:0.99999994"
       d="m 315.34375,399.83984 -27.38281,7.33399 a 28.346457,28.346457 0 0 0 -20.04297,34.71875 l 17.11914,63.88672 2.73242,-0.73242 -15.85156,-59.1543 a 28.346457,28.346457 0 0 1 -0.45117,-1.95508 28.346457,28.346457 0 0 1 -0.39844,-2.80664 28.346457,28.346457 0 0 1 -0.11524,-2.83008 28.346457,28.346457 0 0 1 0.16602,-2.82812 28.346457,28.346457 0 0 1 0.44922,-2.79883 28.346457,28.346457 0 0 1 0.72656,-2.73828 28.346457,28.346457 0 0 1 0.99414,-2.65235 28.346457,28.346457 0 0 1 1.25586,-2.54101 28.346457,28.346457 0 0 1 1.50196,-2.40235 28.346457,28.346457 0 0 1 1.73632,-2.24023 28.346457,28.346457 0 0 1 1.94922,-2.05469 28.346457,28.346457 0 0 1 2.14453,-1.85156 28.346457,28.346457 0 0 1 2.32032,-1.62695 28.346457,28.346457 0 0 1 2.4707,-1.38868 28.346457,28.346457 0 0 1 2.5957,-1.13476 28.346457,28.346457 0 0 1 2.69727,-0.86914 l 24.65039,-6.60156 -0.23242,-0.8711 z"
       id="path4688"
       transform="scale(0.26458333)"
       inkscape:connector-curvature="0" />
    <path
       style="fill:#868686;fill-opacity:1;stroke:none;stroke-width:0.99999994"
       d="m 315.14844,399.94336 v 217.32226 l 170.07812,0.002 V 399.94531 l -111.05273,-0.002 55.42773,0.0996 c 0,0 -9.37612,7.07534 -27.8164,7.07534 -18.44028,0 -27.61133,-7.17495 -27.61133,-7.17495 z"
       id="path4692"
       transform="scale(0.26458333)"
       inkscape:connector-curvature="0"
       sodipodi:nodetypes="cccccczcc" />
    <path
       sodipodi:nodetypes="cccccccccczcc"
       inkscape:connector-curvature="0"
       id="path4725"
       d="m 315.14844,403.87193 v 170.96919 l 4.25245,0.28793 0.0893,42.13657 161.72116,0.002 v -41.89079 l 4.01523,-0.17857 V 403.87388 l -111.05273,-0.002 55.42773,0.0996 c 0,0 -9.37612,7.07534 -27.8164,7.07534 -18.44028,0 -27.61133,-7.17495 -27.61133,-7.17495 z"
       style="fill:#717171;fill-opacity:1;stroke:none;stroke-width:0.99999994"
       transform="scale(0.26458333)" />
    <path
       sodipodi:nodetypes="ccccccc"
       inkscape:connector-curvature="0"
       id="path4847"
       d="m 93.4107,108.74732 h 25.19015 c 6.48247,0.39294 10.36505,3.70741 9.44369,10.8468 -0.33408,1.46999 -9.68959,68.73514 -9.68959,68.73514 H 93.52711 l -9.653536,-68.45581 c -2.04412,-7.23234 3.80371,-11.12613 9.537126,-11.12613 z"
       style="display:inline;fill:#452a0c;fill-opacity:1;stroke:none;stroke-width:0.5224452" />
  </g>
  <g
     inkscape:groupmode="layer"
     id="layer8"
     inkscape:label="head"
     style="display:inline">
    <circle
       r="25"
       cy="80.818115"
       cx="105.8827"
       id="circle4700"
       style="fill:#f8d583;fill-opacity:1;stroke:none;stroke-width:0.26458332" />
    <circle
       style="fill:#b09453;fill-opacity:1;stroke:none;stroke-width:0.26458332"
       id="circle4721"
       cx="105.8827"
       cy="80.818115"
       r="24" />
    <path
       style="fill:#ac753f;fill-opacity:1;stroke:none;stroke-width:0.26458332"
       id="circle4710"
       sodipodi:type="arc"
       sodipodi:cx="105.8827"
       sodipodi:cy="80.818115"
       sodipodi:rx="25"
       sodipodi:ry="25"
       sodipodi:start="2.443461"
       sodipodi:end="0.6981317"
       sodipodi:open="true"
       d="m 86.731586,96.887805 a 25,25 0 0 1 1.995072,-34.254031 25,25 0 0 1 34.312082,0 25,25 0 0 1 1.99507,34.254031" />
    <path
       d="m 87.497631,96.889352 a 24,24.070103 0 0 1 1.915268,-32.979922 24,24.070103 0 0 1 32.939601,10e-7 24,24.070103 0 0 1 1.91526,32.979922"
       sodipodi:open="true"
       sodipodi:end="0.6981317"
       sodipodi:start="2.443461"
       sodipodi:ry="24.070103"
       sodipodi:rx="24"
       sodipodi:cy="81.417389"
       sodipodi:cx="105.8827"
       sodipodi:type="arc"
       id="path4717"
       style="fill:#754a1b;fill-opacity:1;stroke:none;stroke-width:0.26496947" />
  </g>
</svg>
