<?xml version="1.0" encoding="UTF-8" standalone="no"?>
<!-- Created with Inkscape (http://www.inkscape.org/) -->

<svg
   xmlns:dc="http://purl.org/dc/elements/1.1/"
   xmlns:cc="http://creativecommons.org/ns#"
   xmlns:rdf="http://www.w3.org/1999/02/22-rdf-syntax-ns#"
   xmlns:svg="http://www.w3.org/2000/svg"
   xmlns="http://www.w3.org/2000/svg"
   xmlns:xlink="http://www.w3.org/1999/xlink"
   xmlns:sodipodi="http://sodipodi.sourceforge.net/DTD/sodipodi-0.dtd"
   xmlns:inkscape="http://www.inkscape.org/namespaces/inkscape"
   width="297mm"
   height="210mm"
   viewBox="0 0 297 210"
   version="1.1"
   id="svg8"
   inkscape:version="0.92.3 (2405546, 2018-03-11)"
   sodipodi:docname="me.svg">
  <defs
     id="defs2">
    <inkscape:path-effect
       simplifyJustCoalesce="false"
       simplifyindividualpaths="false"
       simplify_just_coalesce="false"
       simplify_individual_paths="false"
       helper_size="0"
       smooth_angles="360"
       threshold="0.00961538"
       steps="1"
       is_visible="true"
       id="path-effect1648"
       effect="simplify" />
    <linearGradient
       id="linearGradient1535"
       inkscape:collect="always">
      <stop
         id="stop1531"
         offset="0"
         style="stop-color:#4c1e09;stop-opacity:1" />
      <stop
         id="stop1533"
         offset="1"
         style="stop-color:#ffffff;stop-opacity:1" />
    </linearGradient>
    <inkscape:path-effect
       effect="simplify"
       id="path-effect1245"
       is_visible="true"
       steps="1"
       threshold="0.00961538"
       smooth_angles="360"
       helper_size="0"
       simplify_individual_paths="false"
       simplify_just_coalesce="false"
       simplifyindividualpaths="false"
       simplifyJustCoalesce="false" />
    <inkscape:path-effect
       simplifyJustCoalesce="false"
       simplifyindividualpaths="false"
       simplify_just_coalesce="false"
       simplify_individual_paths="false"
       helper_size="0"
       smooth_angles="360"
       threshold="0.00961538"
       steps="1"
       is_visible="true"
       id="path-effect1230"
       effect="simplify" />
    <inkscape:path-effect
       effect="simplify"
       id="path-effect1216"
       is_visible="true"
       steps="1"
       threshold="0.00961538"
       smooth_angles="360"
       helper_size="0"
       simplify_individual_paths="false"
       simplify_just_coalesce="false"
       simplifyindividualpaths="false"
       simplifyJustCoalesce="false" />
    <inkscape:path-effect
       effect="simplify"
       id="path-effect1196"
       is_visible="true"
       steps="1"
       threshold="0.00961538"
       smooth_angles="360"
       helper_size="0"
       simplify_individual_paths="false"
       simplify_just_coalesce="false"
       simplifyindividualpaths="false"
       simplifyJustCoalesce="false" />
    <inkscape:path-effect
       effect="simplify"
       id="path-effect1192"
       is_visible="true"
       steps="1"
       threshold="0.00961538"
       smooth_angles="360"
       helper_size="0"
       simplify_individual_paths="false"
       simplify_just_coalesce="false"
       simplifyindividualpaths="false"
       simplifyJustCoalesce="false" />
    <inkscape:path-effect
       effect="simplify"
       id="path-effect1054"
       is_visible="true"
       steps="1"
       threshold="0.00961538"
       smooth_angles="360"
       helper_size="0"
       simplify_individual_paths="false"
       simplify_just_coalesce="false"
       simplifyindividualpaths="false"
       simplifyJustCoalesce="false" />
    <inkscape:path-effect
       effect="simplify"
       id="path-effect1034"
       is_visible="true"
       steps="1"
       threshold="0.00961538"
       smooth_angles="360"
       helper_size="0"
       simplify_individual_paths="false"
       simplify_just_coalesce="false"
       simplifyindividualpaths="false"
       simplifyJustCoalesce="false" />
    <inkscape:path-effect
       effect="simplify"
       id="path-effect1026"
       is_visible="true"
       steps="1"
       threshold="0.5"
       smooth_angles="360"
       helper_size="0"
       simplify_individual_paths="false"
       simplify_just_coalesce="false"
       simplifyindividualpaths="false"
       simplifyJustCoalesce="false" />
    <inkscape:path-effect
       effect="simplify"
       id="path-effect1022"
       is_visible="true"
       steps="1"
       threshold="0.5"
       smooth_angles="360"
       helper_size="0"
       simplify_individual_paths="false"
       simplify_just_coalesce="false"
       simplifyindividualpaths="false"
       simplifyJustCoalesce="false" />
    <inkscape:path-effect
       effect="simplify"
       id="path-effect1018"
       is_visible="true"
       steps="1"
       threshold="0.0142857"
       smooth_angles="360"
       helper_size="0"
       simplify_individual_paths="false"
       simplify_just_coalesce="false"
       simplifyindividualpaths="false"
       simplifyJustCoalesce="false" />
    <inkscape:path-effect
       effect="simplify"
       id="path-effect1014"
       is_visible="true"
       steps="1"
       threshold="0.00961538"
       smooth_angles="360"
       helper_size="0"
       simplify_individual_paths="false"
       simplify_just_coalesce="false"
       simplifyindividualpaths="false"
       simplifyJustCoalesce="false" />
    <inkscape:path-effect
       effect="simplify"
       id="path-effect1010"
       is_visible="true"
       steps="1"
       threshold="0.00647258"
       smooth_angles="360"
       helper_size="0"
       simplify_individual_paths="false"
       simplify_just_coalesce="false"
       simplifyindividualpaths="false"
       simplifyJustCoalesce="false" />
    <inkscape:path-effect
       effect="simplify"
       id="path-effect982"
       is_visible="true"
       steps="1"
       threshold="0.00416667"
       smooth_angles="360"
       helper_size="0"
       simplify_individual_paths="false"
       simplify_just_coalesce="false"
       simplifyindividualpaths="false"
       simplifyJustCoalesce="false" />
    <inkscape:path-effect
       effect="simplify"
       id="path-effect978"
       is_visible="true"
       steps="1"
       threshold="0.00416667"
       smooth_angles="360"
       helper_size="0"
       simplify_individual_paths="false"
       simplify_just_coalesce="false"
       simplifyindividualpaths="false"
       simplifyJustCoalesce="false" />
    <inkscape:path-effect
       effect="simplify"
       id="path-effect974"
       is_visible="true"
       steps="1"
       threshold="0.00416667"
       smooth_angles="360"
       helper_size="0"
       simplify_individual_paths="false"
       simplify_just_coalesce="false"
       simplifyindividualpaths="false"
       simplifyJustCoalesce="false" />
    <inkscape:perspective
       sodipodi:type="inkscape:persp3d"
       inkscape:vp_x="235.13034 : 884.73405 : 1"
       inkscape:vp_y="-34.394282 : 28.803408 : 1"
       inkscape:vp_z="510.46238 : 28.803408 : 1"
       inkscape:persp3d-origin="103.38278 : 53.894282 : 1"
       id="perspective4689" />
    <inkscape:path-effect
       effect="spiro"
       id="path-effect4636"
       is_visible="true" />
    <inkscape:path-effect
       effect="simplify"
       id="path-effect4608"
       is_visible="true"
       steps="1"
       threshold="0.00337705"
       smooth_angles="360"
       helper_size="0"
       simplify_individual_paths="false"
       simplify_just_coalesce="false"
       simplifyindividualpaths="false"
       simplifyJustCoalesce="false" />
    <inkscape:path-effect
       effect="bspline"
       id="path-effect4604"
       is_visible="true"
       weight="33.333333"
       steps="2"
       helper_size="0"
       apply_no_weight="true"
       apply_with_weight="true"
       only_selected="false" />
    <inkscape:path-effect
       effect="spiro"
       id="path-effect4600"
       is_visible="true" />
    <inkscape:path-effect
       effect="simplify"
       id="path-effect4598"
       is_visible="true"
       steps="1"
       threshold="0.000408163"
       smooth_angles="360"
       helper_size="0"
       simplify_individual_paths="false"
       simplify_just_coalesce="false"
       simplifyindividualpaths="false"
       simplifyJustCoalesce="false" />
    <inkscape:path-effect
       effect="simplify"
       id="path-effect4594"
       is_visible="true"
       steps="1"
       threshold="0.000408163"
       smooth_angles="360"
       helper_size="0"
       simplify_individual_paths="false"
       simplify_just_coalesce="false"
       simplifyindividualpaths="false"
       simplifyJustCoalesce="false" />
    <inkscape:path-effect
       effect="powerstroke"
       id="path-effect4588"
       is_visible="true"
       offset_points="1.2313936,1.7253672"
       sort_points="true"
       interpolator_type="CubicBezierJohan"
       interpolator_beta="0.2"
       start_linecap_type="zerowidth"
       linejoin_type="extrp_arc"
       miter_limit="4"
       end_linecap_type="zerowidth" />
    <inkscape:path-effect
       effect="bspline"
       id="path-effect4578"
       is_visible="true"
       weight="33.333333"
       steps="2"
       helper_size="0"
       apply_no_weight="true"
       apply_with_weight="true"
       only_selected="false" />
    <inkscape:path-effect
       effect="bspline"
       id="path-effect4574"
       is_visible="true"
       weight="33.333333"
       steps="2"
       helper_size="0"
       apply_no_weight="true"
       apply_with_weight="true"
       only_selected="false" />
    <inkscape:path-effect
       effect="bspline"
       id="path-effect4570"
       is_visible="true"
       weight="33.333333"
       steps="2"
       helper_size="0"
       apply_no_weight="true"
       apply_with_weight="true"
       only_selected="false" />
    <linearGradient
       inkscape:collect="always"
       xlink:href="#linearGradient1535"
       id="linearGradient1463"
       x1="255.85002"
       y1="284.39096"
       x2="267.10931"
       y2="281.86484"
       gradientUnits="userSpaceOnUse"
       gradientTransform="translate(0.12446689,1.416289e-6)" />
    <linearGradient
       inkscape:collect="always"
       xlink:href="#linearGradient1535"
       id="linearGradient1467"
       gradientUnits="userSpaceOnUse"
       gradientTransform="matrix(-1,0,0,1,470.13619,-2.646211e-6)"
       x1="255.85002"
       y1="284.39096"
       x2="283.91425"
       y2="277.11838" />
    <linearGradient
       inkscape:collect="always"
       xlink:href="#linearGradient1535"
       id="linearGradient1529"
       x1="235.21458"
       y1="282.18335"
       x2="252.06366"
       y2="240.21448"
       gradientUnits="userSpaceOnUse" />
  </defs>
  <sodipodi:namedview
     id="base"
     pagecolor="#ffffff"
     bordercolor="#666666"
     borderopacity="1.0"
     inkscape:pageopacity="0.0"
     inkscape:pageshadow="2"
     inkscape:zoom="0.70710678"
     inkscape:cx="548.08492"
     inkscape:cy="423.39713"
     inkscape:document-units="mm"
     inkscape:current-layer="layer9"
     showgrid="false"
     inkscape:object-paths="false"
     inkscape:snap-bbox="true"
     inkscape:bbox-nodes="false"
     inkscape:snap-bbox-edge-midpoints="false"
     inkscape:snap-nodes="true"
     inkscape:snap-bbox-midpoints="false"
     inkscape:window-width="1920"
     inkscape:window-height="1172"
     inkscape:window-x="1280"
     inkscape:window-y="0"
     inkscape:window-maximized="1"
     showguides="true"
     inkscape:guide-bbox="true"
     inkscape:snap-midpoints="false"
     inkscape:snap-to-guides="true"
     inkscape:snap-smooth-nodes="false"
     inkscape:bbox-paths="false"
     inkscape:snap-others="false"
     inkscape:object-nodes="false"
     inkscape:snap-intersection-paths="false" />
  <metadata
     id="metadata5">
    <rdf:RDF>
      <cc:Work
         rdf:about="">
        <dc:format>image/svg+xml</dc:format>
        <dc:type
           rdf:resource="http://purl.org/dc/dcmitype/StillImage" />
        <dc:title></dc:title>
      </cc:Work>
    </rdf:RDF>
  </metadata>
  <g
     inkscape:groupmode="layer"
     id="layer9"
     inkscape:label="hole"
     style="display:inline">
    <g
       id="g1700">
      <g
         id="g1473"
         style="display:inline"
         transform="translate(0,-87.000001)">
        <rect
           style="fill:url(#linearGradient1529);fill-opacity:1;stroke:none;stroke-width:0.06868844;stroke-linecap:round;stroke-miterlimit:4;stroke-dasharray:none;stroke-opacity:1"
           id="rect1440"
           width="49.853184"
           height="28.182999"
           x="210.20374"
           y="254.1051" />
        <path
           style="fill:url(#linearGradient1463);fill-opacity:1;stroke:none;stroke-width:0.26458332px;stroke-linecap:butt;stroke-linejoin:miter;stroke-opacity:1"
           d="m 260.05692,282.28809 4.23747,10e-6 -4.23747,-28.183 z"
           id="path1455"
           inkscape:connector-curvature="0"
           sodipodi:nodetypes="cccc" />
        <path
           sodipodi:nodetypes="cccc"
           inkscape:connector-curvature="0"
           id="path1465"
           d="m 210.20374,282.28809 -4.23747,10e-6 4.23747,-28.183 z"
           style="fill:url(#linearGradient1467);fill-opacity:1;stroke:none;stroke-width:0.26458332px;stroke-linecap:butt;stroke-linejoin:miter;stroke-opacity:1" />
      </g>
      <path
         sodipodi:nodetypes="cccc"
         inkscape:connector-curvature="0"
         id="path1475"
         d="m 260.28711,286.45529 v -34.68397 c 0,-6.18943 9.77539,-6.50235 9.77539,0 v 20.20557"
         style="display:inline;fill:none;fill-opacity:1;stroke:#000000;stroke-width:1.5;stroke-linecap:round;stroke-linejoin:miter;stroke-miterlimit:4;stroke-dasharray:none;stroke-opacity:1"
         transform="translate(0,-87.000001)" />
      <path
         style="display:inline;fill:none;stroke:#000000;stroke-width:1.5;stroke-linecap:round;stroke-linejoin:miter;stroke-miterlimit:4;stroke-dasharray:none;stroke-opacity:1"
         d="m 258.22913,286.45529 v -41.6998 c 0,-6.18943 9.77539,-6.50235 9.77539,0 v 20.20557"
         id="path1477"
         inkscape:connector-curvature="0"
         sodipodi:nodetypes="cccc"
         transform="translate(0,-87.000001)" />
      <rect
         transform="matrix(0.15963427,0.98717621,-0.07402379,0.99725647,0,-87.000001)"
         y="-917.35602"
         x="1194.9331"
         height="0.14880683"
         width="6.0212355"
         id="rect1515"
         style="display:inline;fill:none;fill-opacity:1;stroke:#000000;stroke-width:3.11455655;stroke-linecap:round;stroke-miterlimit:4;stroke-dasharray:none;stroke-opacity:1" />
      <rect
         style="display:inline;fill:none;fill-opacity:1;stroke:#000000;stroke-width:3.11455655;stroke-linecap:round;stroke-miterlimit:4;stroke-dasharray:none;stroke-opacity:1"
         id="rect1517"
         width="6.0212355"
         height="0.14880683"
         x="1197.5471"
         y="-911.71893"
         transform="matrix(0.15963427,0.98717621,-0.07402379,0.99725647,0,-87.000001)" />
      <path
         sodipodi:nodetypes="ccccc"
         inkscape:connector-curvature="0"
         id="path1673"
         d="m 261.87151,283.29688 -0.0695,-15.88721 h 18.28459 c 3.44426,0 3.61838,-2.0993 0,-2.0993 h -11.2439"
         style="display:inline;fill:none;stroke:#000000;stroke-width:0.51960701;stroke-linecap:round;stroke-linejoin:miter;stroke-miterlimit:4;stroke-dasharray:none;stroke-opacity:0.31372549"
         transform="translate(0,-87.000001)" />
      <path
         style="display:inline;fill:none;stroke:#000000;stroke-width:0.51960701;stroke-linecap:round;stroke-linejoin:miter;stroke-miterlimit:4;stroke-dasharray:none;stroke-opacity:0.31372549"
         d="m 262.94886,290.31685 -0.0695,-15.88721 h 18.17944 c 3.44426,0 3.61839,-2.09929 0,-2.09929 h -11.24389"
         id="path1675"
         inkscape:connector-curvature="0"
         sodipodi:nodetypes="ccccc"
         transform="translate(0,-87.000001)" />
      <rect
         y="282.28809"
         x="252.10197"
         height="9.2863331"
         width="12.19241"
         id="rect1479"
         style="display:inline;fill:#ffffff;fill-opacity:1;stroke:none;stroke-width:1.5;stroke-linecap:round;stroke-miterlimit:4;stroke-dasharray:none;stroke-opacity:1"
         transform="translate(0,-87.000001)" />
    </g>
  </g>
  <g
     inkscape:groupmode="layer"
     id="layer8"
     inkscape:label="shadow">
    <path
       style="display:inline;fill:#000000;fill-opacity:0.31372549;stroke:none;stroke-width:0.44348866;stroke-miterlimit:4;stroke-dasharray:none;stroke-opacity:1"
       d="m 201.21891,194.97856 -17.5105,-3.55238 2.17765,-1.40111 8.41074,-5.41122 -22.1602,-0.0442 2.00225,-3.93503 1.5075,-2.9629 -27.05624,4.17096 c -10.49589,0.4307 -19.63649,2.89942 -24.43906,6.60057 -0.43524,0.001 -0.86316,0.0142 -1.27769,0.0393 0.32569,-0.61263 0.30962,-1.26114 -0.0474,-1.91359 -0.005,-0.01 -0.0111,-0.0197 -0.0167,-0.0296 0.0909,0.0292 0.20343,0.0653 0.20343,0.0653 l 1.7e-4,-1.5e-4 c -0.006,-0.009 -0.0131,-0.0164 -0.0192,-0.0249 -0.0223,-0.0306 -0.0451,-0.0608 -0.0676,-0.0913 -4.2e-4,-1.5e-4 -6.6e-4,-2.1e-4 -8e-4,-6.4e-4 -0.0837,-0.11331 -0.16807,-0.22459 -0.25414,-0.3322 -0.0783,-0.0979 -0.15728,-0.19417 -0.23743,-0.28743 -0.0156,-0.0181 -0.0311,-0.0355 -0.0467,-0.0534 -0.076,-0.0872 -0.15325,-0.17231 -0.23088,-0.25552 -0.0229,-0.0245 -0.0457,-0.0495 -0.0687,-0.0738 -0.09,-0.0945 -0.18093,-0.18625 -0.27301,-0.27561 -0.0177,-0.0171 -0.0352,-0.034 -0.0529,-0.051 -0.0949,-0.0907 -0.1906,-0.17932 -0.28756,-0.26476 -0.003,-0.003 -0.006,-0.005 -0.008,-0.008 -0.1007,-0.0885 -0.2029,-0.17353 -0.30576,-0.25651 -0.0183,-0.0148 -0.0365,-0.0294 -0.0549,-0.044 -0.10121,-0.0804 -0.2033,-0.15884 -0.3065,-0.23411 -0.009,-0.007 -0.0184,-0.013 -0.0276,-0.0197 -0.10034,-0.0727 -0.20177,-0.14264 -0.30389,-0.21058 -0.0132,-0.009 -0.0263,-0.0178 -0.0396,-0.0264 -0.10783,-0.0709 -0.21667,-0.13934 -0.32632,-0.20522 -0.0131,-0.008 -0.026,-0.0155 -0.0392,-0.0234 -0.10886,-0.0647 -0.21877,-0.12724 -0.32934,-0.18715 -0.005,-0.002 -0.007,-0.004 -0.0106,-0.006 -0.11638,-0.0629 -0.23358,-0.12281 -0.35174,-0.18053 -0.0101,-0.005 -0.0201,-0.01 -0.0302,-0.0146 -0.23893,-0.11573 -0.48116,-0.22126 -0.7267,-0.31722 -0.006,-0.002 -0.0106,-0.004 -0.016,-0.006 -0.37757,-0.14683 -0.76258,-0.27134 -1.15302,-0.37585 -0.002,-6.4e-4 -0.004,-0.001 -0.006,-0.002 l -1.6e-4,1.5e-4 c -0.95375,-0.25476 -1.94087,-0.38996 -2.93839,-0.44592 -0.62122,-0.14488 -1.26288,-0.27661 -1.92062,-0.39427 -1.2086,-0.21069 -2.4621,-0.37273 -3.73203,-0.48244 l -0.006,-2.2e-4 c -0.50597,-0.0442 -1.01354,-0.08 -1.52087,-0.1073 l -0.0307,-0.002 c -0.50145,-0.0265 -1.002,-0.0447 -1.49989,-0.0544 l -0.0453,-0.002 c -0.48185,-0.009 -0.96054,-0.009 -1.43448,-0.002 -0.0339,7e-5 -0.0677,1.7e-4 -0.10152,3.2e-4 -0.46336,0.008 -0.92154,0.0239 -1.37307,0.0471 -0.0399,0.002 -0.0797,0.003 -0.11946,0.005 -0.43833,0.024 -0.86974,0.0551 -1.29292,0.0933 -0.0518,0.004 -0.1035,0.008 -0.15508,0.0126 -0.40072,0.0381 -0.79341,0.0826 -1.17697,0.13319 -0.0713,0.009 -0.142284,0.0173 -0.212974,0.0262 -0.360029,0.0503 -0.711313,0.10603 -1.052987,0.16713 -0.08539,0.0141 -0.170219,0.0285 -0.254467,0.0433 -0.323168,0.0613 -0.636953,0.12748 -0.940644,0.19831 -0.09113,0.0198 -0.181415,0.04 -0.270826,0.0606 -0.270728,0.067 -0.532678,0.13789 -0.785359,0.21237 l -9.355411,-1.21572 -6.937734,0.0827 13.093955,2.59631 c -0.01763,0.0141 -0.03505,0.0282 -0.05227,0.0423 -0.116026,0.0857 -0.224211,0.17306 -0.324421,0.26187 l -0.0039,0.003 c -0.110359,0.10597 -0.209508,0.21386 -0.297275,0.3235 l -0.456069,-0.0801 -14.194617,-3.14219 -7.690664,0.007 21.652775,5.10693 c 0.11314,0.0238 0.209959,0.0445 0.312511,0.0662 0.02927,0.0836 0.06416,0.16731 0.104646,0.25104 0.0208,0.0387 0.04279,0.0775 0.06597,0.1162 0.01862,0.0348 0.0382,0.0696 0.05874,0.10439 0.0048,0.009 0.0097,0.0173 0.01464,0.026 0.06007,0.0984 0.127789,0.1966 0.203071,0.29462 0.02572,0.0312 0.05221,0.0623 0.07945,0.0934 0.02988,0.0365 0.06079,0.0729 0.09275,0.10929 0.0116,0.0138 0.02334,0.0276 0.03524,0.0414 0.08892,0.0984 0.185396,0.19638 0.289331,0.29386 0.02531,0.0225 0.05102,0.045 0.07712,0.0674 0.04163,0.0374 0.08436,0.0747 0.128168,0.11193 0.02182,0.0194 0.04393,0.0388 0.06633,0.0582 0.115696,0.0961 0.23861,0.19162 0.3686,0.28632 0.02422,0.0169 0.04866,0.0338 0.07333,0.0506 0.05214,0.0368 0.105344,0.0735 0.159607,0.11013 0.0337,0.0236 0.06785,0.0471 0.102424,0.0706 0.142079,0.0935 0.291047,0.18614 0.446732,0.27769 0.01832,0.0104 0.03673,0.0207 0.05522,0.031 0.06052,0.0348 0.122013,0.0693 0.184456,0.10377 0.05223,0.03 0.105176,0.0599 0.158835,0.0896 0.165725,0.089 0.337797,0.17673 0.516018,0.26322 l 0.02868,0.0134 c 0.06723,0.0321 0.135299,0.0641 0.204204,0.0958 0.07506,0.0359 0.15118,0.0716 0.228336,0.107 0.185895,0.083 0.377469,0.16458 0.57451,0.2447 l 0.0064,0.002 c 0.06817,0.0274 0.136974,0.0545 0.206402,0.0815 0.102145,0.0412 0.205727,0.0821 0.310715,0.12254 0.262382,0.098 0.532978,0.19335 0.811304,0.28595 0.128673,0.0441 0.259055,0.0875 0.391096,0.1304 0.262908,0.0827 0.531953,0.16286 0.806729,0.24044 0.163895,0.0478 0.329897,0.0946 0.497914,0.1404 0.258394,0.0682 0.521209,0.13401 0.788109,0.19747 0.19437,0.0477 0.39096,0.0941 0.58965,0.13918 0.25401,0.0557 0.51117,0.10934 0.77121,0.1607 0.30215,0.0628 0.60837,0.12258 0.91819,0.1792 l 0.0314,0.005 c 0.41093,0.0708 0.8273,0.13599 1.24799,0.19547 0.23598,0.0331 0.47321,0.0643 0.71149,0.0937 l 0.0601,0.008 c 0.99313,0.32233 2.19954,0.55227 3.72475,0.62251 8.1e-4,4e-5 0.002,4e-5 0.002,8e-5 0.28325,0.013 0.57763,0.0204 0.88342,0.022 0.02,-9e-5 0.0398,2.9e-4 0.0597,3.2e-4 0.15943,6.4e-4 0.32104,-1.7e-4 0.48682,-0.003 l 4e-4,7e-5 c 0.1466,-0.003 0.29666,-0.007 0.4484,-0.0119 0.0256,-9.6e-4 0.052,-0.002 0.0778,-0.003 0.0694,-0.003 0.1382,-0.005 0.20873,-0.008 l 3.7e-4,7e-5 c 0.0782,-0.004 0.15843,-0.008 0.23805,-0.012 0.015,-6.4e-4 0.0297,-10e-4 0.0447,-0.002 0.16968,-0.009 0.34155,-0.0195 0.51745,-0.0318 0.0201,-0.001 0.0416,-0.003 0.0618,-0.005 0.003,-2.9e-4 0.006,-2.6e-4 0.009,-6.4e-4 0.10264,-0.007 0.20573,-0.0148 0.31048,-0.0234 0.0441,-0.004 0.0895,-0.008 0.13404,-0.0117 0.0448,-0.004 0.0896,-0.008 0.13461,-0.0118 0.14814,-0.0131 0.29808,-0.0274 0.4504,-0.0428 0.03,-0.003 0.059,-0.006 0.0888,-0.009 0.17936,-0.0186 0.36198,-0.0389 0.54729,-0.0607 0.0411,-0.005 0.0827,-0.0101 0.12399,-0.015 0.15489,-0.0187 0.31207,-0.0383 0.47118,-0.0592 0.0435,-0.006 0.0865,-0.0113 0.13029,-0.0172 0.23793,-0.032 0.48053,-0.0668 0.728,-0.10387 0.11316,-0.017 0.22601,-0.0338 0.34119,-0.0518 0.0492,-0.008 0.10017,-0.0162 0.14982,-0.0241 0.0505,-0.008 0.1013,-0.0164 0.15215,-0.0246 0.17748,-0.0289 0.35717,-0.0591 0.53944,-0.0905 0.0358,-0.006 0.0709,-0.012 0.10684,-0.0183 0.21156,-0.0369 0.42633,-0.0756 0.64442,-0.11606 0.0647,-0.012 0.13082,-0.0247 0.19613,-0.0371 0.12774,-0.0241 0.25701,-0.0494 0.38699,-0.0747 0.32901,-0.0641 0.66281,-0.13082 1.0065,-0.20302 l -0.22562,-0.0155 c 0.18855,-0.047 0.37283,-0.0958 0.55266,-0.14648 l 0.003,-6.4e-4 c 1.17287,-0.32417 2.15223,-0.72163 2.90091,-1.17731 0.23586,0.13789 0.50261,0.27093 0.79117,0.39884 -0.30248,0.36843 -0.55923,0.73964 -0.7724,1.11255 -0.009,0.0154 -0.0185,0.0309 -0.0276,0.0463 -0.22434,0.39942 -0.39759,0.8009 -0.522,1.20286 -0.007,0.025 -0.0147,0.05 -0.0218,0.075 -0.11489,0.39049 -0.18442,0.78139 -0.20753,1.17173 -0.002,0.0468 -0.004,0.0936 -0.005,0.14048 -0.0115,0.36468 0.015,0.72875 0.0816,1.09108 0.014,0.0757 0.0297,0.15136 0.0471,0.22698 0.0751,0.32889 0.182,0.65621 0.31982,0.98129 0.0529,0.12416 0.11036,0.24806 0.17236,0.37166 0.13827,0.27683 0.29816,0.55195 0.48137,0.82457 0.10643,0.15891 0.22043,0.31708 0.34194,0.47442 0.18125,0.23456 0.37984,0.46696 0.5938,0.69732 0.17866,0.19239 0.36868,0.38319 0.5699,0.57223 0.20865,0.19614 0.42944,0.39031 0.66189,0.5825 0.245,0.20268 0.50305,0.40293 0.77387,0.60055 0.24593,0.17946 0.50238,0.35686 0.76938,0.53199 0.28847,0.18942 0.58888,0.376 0.90092,0.55956 0.28495,0.16748 0.58003,0.33262 0.88473,0.49521 l 11.35748,10.98365 9.79235,-5.79387 15.34668,6.54466 1.6e-4,-1.5e-4 4.76561,-7.83721 18.35352,2.74802 1.5e-4,-1.5e-4 -1.95993,-4.32189 -2.03956,-4.49665 18.34758,-4.87124 z"
       id="path1537"
       inkscape:connector-curvature="0"
       sodipodi:nodetypes="ccccccccccccccccccccccccccccccccccccccccccccccccccccccccccccccccccccccccccccccccccccccccccccccccccccccccccccccccccccccccccccccccccccccccccccccccccccccccccccccccccccccccccccccccccccccccc" />
  </g>
  <g
     inkscape:groupmode="layer"
     id="layer5"
     inkscape:label="legs"
     transform="translate(0,-87)" />
  <g
     inkscape:groupmode="layer"
     id="layer3"
     inkscape:label="body"
     transform="translate(0,-87)" />
  <g
     inkscape:groupmode="layer"
     id="layer6"
     inkscape:label="cup"
     style="display:inline"
     transform="translate(0,-87)" />
  <g
     inkscape:groupmode="layer"
     id="layer4"
     inkscape:label="hands"
     style="display:inline"
     transform="translate(0,-87)" />
  <g
     inkscape:label="head"
     inkscape:groupmode="layer"
     id="layer1"
     transform="translate(0,-87)" />
  <g
     inkscape:groupmode="layer"
     id="layer7"
     inkscape:label="face"
     transform="translate(0,-87)" />
  <g
     inkscape:groupmode="layer"
     id="layer2"
     inkscape:label="hairs"
     style="display:inline"
     transform="translate(0,-87)">
    <g
       id="g1362"
       transform="translate(-25.818236,67.351921)">
      <path
         sodipodi:nodetypes="ccaccc"
         inkscape:connector-curvature="0"
         id="rect4684"
         d="m 106.08382,178.57324 h 5.9921 c 0,0 -1.14878,12.15522 0,17.94552 0.31685,1.59708 1.84025,4.32591 1.84025,4.32591 h -7.83235 z"
         style="fill:#eae2d0;fill-opacity:1;stroke:none;stroke-width:0.87466806;stroke-miterlimit:4;stroke-dasharray:none;stroke-opacity:1" />
      <path
         style="fill:#eae2d0;fill-opacity:1;stroke:none;stroke-width:0.87466806;stroke-miterlimit:4;stroke-dasharray:none;stroke-opacity:1"
         d="m 103.91617,178.57324 h -5.992095 c 0,0 1.14878,12.15522 0,17.94552 -0.31685,1.59708 -1.84025,4.32591 -1.84025,4.32591 h 7.832345 z"
         id="path903"
         inkscape:connector-curvature="0"
         sodipodi:nodetypes="ccaccc" />
      <path
         transform="scale(0.26458333)"
         id="path1129"
         d="m 400.94727,674.92188 v 46.24609 c 4.92957,1.83215 13.59487,4.26209 20.83007,2.12109 -0.6491,-22.23622 1.81641,-48.36718 1.81641,-48.36718 z"
         style="fill:#000454;fill-opacity:1;stroke:none;stroke-width:0.99999994px;stroke-linecap:butt;stroke-linejoin:miter;stroke-opacity:1"
         inkscape:connector-curvature="0" />
      <path
         transform="scale(0.26458333)"
         id="path1134"
         d="m 370.10742,674.92188 c 0,0 2.43987,25.83653 1.83008,47.98828 7.43569,0.88642 16.30793,-0.82789 20.81641,-1.88672 v -46.10156 z"
         style="fill:#000454;fill-opacity:1;stroke:none;stroke-width:0.99999994px;stroke-linecap:butt;stroke-linejoin:miter;stroke-opacity:1"
         inkscape:connector-curvature="0" />
      <path
         transform="scale(0.26458333)"
         sodipodi:nodetypes="cccccccccc"
         inkscape:connector-curvature="0"
         id="path1159"
         d="m 424.5293,746.00586 v 10.36485 h -23.58203 v 2.72695 h 29.60156 c 0,0 -1.01439,-1.90856 -1.43317,-2.6957 l -2.19964,-0.0312 v -4.49962 c -0.87859,-1.91104 -1.72678,-3.93861 -2.38672,-5.86523 z"
         style="fill:#000000;fill-opacity:1;stroke:none;stroke-width:3.30583215;stroke-miterlimit:4;stroke-dasharray:none;stroke-opacity:1" />
      <path
         style="fill:#000000;fill-opacity:1;stroke:none;stroke-width:0.87466806;stroke-miterlimit:4;stroke-dasharray:none;stroke-opacity:1"
         d="m 97.676758,197.3808 v 2.74236 h 6.239412 v 0.72151 h -7.832079 c 0,0 0.267179,-0.50497 0.377981,-0.71324 l 0.5832,-0.008 v -1.19053 c 0.23246,-0.50563 0.456877,-1.04209 0.631486,-1.55184 z"
         id="path1162"
         inkscape:connector-curvature="0"
         sodipodi:nodetypes="cccccccccc" />
      <path
         transform="scale(0.26458333)"
         id="path1032"
         d="m 371.33008,674.92188 c -0.39637,0.21539 -0.78263,0.47173 -1.15625,0.76367 0.10345,1.1358 0.44442,5.22043 0.83594,11.22656 8.1251,1.8902 17.13043,7.01438 17.81445,15.75391 0.88218,11.27142 1.15965,22.63114 0.77539,33.93359 -0.14362,4.22011 -0.53208,8.49318 -3.54297,11.99219 -5.21263,6.05768 -13.53561,8.17683 -21.36719,7.59961 -0.88326,1.72201 -1.53711,2.90625 -1.53711,2.90625 h 29.60157 v -81.27149 c -1.67613,-1.22149 -3.52792,-2.18945 -5.47461,-2.90429 z"
         style="fill:#000000;fill-opacity:0.31372549;stroke:none;stroke-width:0.99999994px;stroke-linecap:butt;stroke-linejoin:miter;stroke-opacity:1"
         inkscape:connector-curvature="0" />
      <path
         transform="scale(0.26458333)"
         sodipodi:nodetypes="ccccsccccccc"
         inkscape:connector-curvature="0"
         id="path980"
         d="m 401.10742,686.24219 c -0.0569,0.0823 -0.10458,0.17068 -0.16015,0.2539 v 4.5918 c 5.1077,-1.45675 11.04878,0.0427 14.80664,3.80469 2.49902,2.50174 1.97853,6.20015 1.98047,9.70703 0,0 0.0152,32.88383 0.76953,35.18164 2.71848,17.49887 -4.44771,14.07468 -17.55664,17.31641 v 2 h 29.60156 c 0,0 -5.75754,-10.31341 -6.95508,-16.34961 -3.70456,-18.67243 -1.10002,-54.62952 -0.25195,-64.84961 -8.31847,-2.23079 -15.41169,-3.2457 -22.23438,8.34375 z"
         style="fill:#000000;fill-opacity:0.31372549;stroke:none;stroke-width:0.99999994px;stroke-linecap:butt;stroke-linejoin:miter;stroke-opacity:1" />
      <ellipse
         ry="19.736919"
         rx="16.071817"
         cy="162.54674"
         cx="104.99824"
         id="path4556"
         style="fill:#9197ff;fill-opacity:1;stroke:none;stroke-width:0.92599273;stroke-miterlimit:4;stroke-dasharray:none;stroke-opacity:1" />
      <path
         inkscape:connector-curvature="0"
         id="circle1124"
         d="m 120.90229,165.22764 c -9.87074,4.56907 -20.43869,4.81344 -31.788245,0.2067 a 16.071817,19.736919 0 0 0 15.884025,16.8491 16.071817,19.736919 0 0 0 15.90422,-17.0558 z"
         style="fill:#000454;fill-opacity:1;stroke:none;stroke-width:0.92599273;stroke-miterlimit:4;stroke-dasharray:none;stroke-opacity:1" />
      <path
         inkscape:connector-curvature="0"
         id="circle957"
         d="m 112.22535,144.94206 c 0.94428,3.59892 2.39794,10.98394 -0.48308,14.31385 l -0.0379,-3.69486 c -1.37113,-2.0112 -11.808656,-2.55898 -11.769003,0.0465 l 0.07616,5.00486 c -0.224459,-2.29687 -5.343456,-0.15912 -2.467603,-15.53962 a 16.071817,19.736919 0 0 0 -0.951013,0.66972 c -1.281344,1.005 -2.54713,2.28049 -3.517486,3.60237 l 1.147107,13.79295 5.584467,2.53732 -0.168321,8.66459 c 0,0 9.466639,3.42082 13.291059,-3.175 2.06341,3.30579 -0.35739,7.21211 -2.61065,9.98285 a 16.071817,19.736919 0 0 0 10.75108,-18.60093 16.071817,19.736919 0 0 0 -4.41759,-13.5754 c -0.093,-0.11722 -0.1854,-0.23614 -0.27899,-0.3514 -0.71586,-0.39379 -1.2035,-0.58911 -1.2035,-0.58911 l -1.35372,-1.96681 a 16.071817,19.736919 0 0 0 -4.2e-4,-5.2e-4 16.071817,19.736919 0 0 0 -0.76922,-0.57929 c -0.004,-0.003 -0.009,-0.006 -0.0131,-0.009 -0.26396,-0.18609 -0.53232,-0.36275 -0.80457,-0.5302 a 16.071817,19.736919 0 0 0 -0.004,-0.003 z"
         style="fill:#000000;fill-opacity:0.31372549;stroke:none;stroke-width:0.92599273;stroke-miterlimit:4;stroke-dasharray:none;stroke-opacity:1" />
      <path
         inkscape:connector-curvature="0"
         style="display:inline;fill:#b50008;fill-opacity:1;stroke:none;stroke-width:0.10249006;stroke-miterlimit:4;stroke-dasharray:none;stroke-opacity:1"
         d="m 111.12374,157.28404 c 0,1.24924 -2.78659,2.26194 -6.12571,2.26194 -3.33913,0 -6.125715,-1.0127 -6.125718,-2.26194 3e-6,-1.24923 2.786588,-2.26193 6.125718,-2.26193 3.33912,0 6.12571,1.0127 6.12571,2.26193 z"
         id="path1183" />
      <path
         id="path1166"
         d="m 110.97491,157.28404 c 0,1.21889 -2.71889,2.20698 -5.97688,2.20698 -3.258,0 -5.976887,-0.98809 -5.97689,-2.20698 3e-6,-1.21888 2.71889,-2.20697 5.97689,-2.20697 3.25799,0 5.97688,0.98809 5.97688,2.20697 z"
         style="display:inline;fill:#a3a3a3;fill-opacity:1;stroke:none;stroke-width:0.1;stroke-miterlimit:4;stroke-dasharray:none;stroke-opacity:1"
         inkscape:connector-curvature="0" />
      <path
         transform="scale(0.26458333)"
         id="rect1263"
         d="m 409.06055,587.4668 v 10.73242 h 3.80078 v -9.5957 c -1.15036,-0.42847 -2.42736,-0.8073 -3.80078,-1.13672 z"
         style="display:inline;fill:#ffffff;fill-opacity:0.31372549;stroke:none;stroke-width:0.39686194;stroke-linecap:round;stroke-miterlimit:4;stroke-dasharray:none;stroke-opacity:0.11764706"
         inkscape:connector-curvature="0" />
      <path
         inkscape:connector-curvature="0"
         style="display:inline;fill:#000000;fill-opacity:1;stroke:none;stroke-width:0.1;stroke-miterlimit:4;stroke-dasharray:none;stroke-opacity:1"
         d="m 110.97491,158.31303 c 0,1.21889 -2.71889,2.20698 -5.97688,2.20698 -3.258,0 -5.976887,-0.98809 -5.97689,-2.20698 3e-6,-1.21888 2.71889,-2.20697 5.97689,-2.20697 3.25799,0 5.97688,0.98809 5.97688,2.20697 z"
         id="path1179" />
      <path
         transform="scale(0.26458333)"
         id="rect1258"
         d="m 396.84375,586.11719 c -12.3137,0 -22.58983,3.735 -22.58984,8.34179 0,1.38172 0.93792,2.68253 2.56445,3.83008 h 24.02344 v -12.03125 c -1.30237,-0.0877 -2.63453,-0.14062 -3.99805,-0.14062 z"
         style="display:inline;fill:#000000;fill-opacity:0.31372549;stroke:none;stroke-width:0.37795275;stroke-linecap:round;stroke-miterlimit:4;stroke-dasharray:none;stroke-opacity:0.11764706"
         inkscape:connector-curvature="0" />
      <path
         transform="scale(0.26458333)"
         id="path1270"
         d="m 407.18945,594.44922 c -0.805,0 -1.57581,0.0515 -2.32617,0.12305 3.32583,0.54125 5.69727,1.76616 5.69727,3.19726 0,1.63092 -3.08403,2.99024 -7.14844,3.37695 1.16383,0.18976 2.43827,0.29688 3.77734,0.29688 5.16212,0 9.47071,-1.56483 9.47071,-3.49609 0,-1.93123 -4.30859,-3.49805 -9.47071,-3.49805 z"
         style="display:inline;fill:#ffffff;fill-opacity:0.31372549;stroke:none;stroke-width:0.1584449;stroke-miterlimit:4;stroke-dasharray:none;stroke-opacity:1"
         inkscape:connector-curvature="0" />
      <path
         inkscape:connector-curvature="0"
         id="path1176"
         d="m 111.10615,157.29789 c -0.0212,1.21244 -2.7907,2.19315 -6.10791,2.19315 -3.29451,0 -6.047992,-0.96739 -6.106317,-2.16834 -0.0023,-0.004 -0.01321,-0.0186 -0.01321,-0.0186 l 0.0052,14.16761 c 0.0054,1.2615 2.784267,2.51354 6.114247,2.51354 3.32998,0 6.10914,-1.25204 6.11425,-2.51354 l 0.005,-14.16761 c 0,0 -0.0108,-0.006 -0.0116,-0.006 z"
         style="display:inline;fill:#b50008;fill-opacity:1;stroke:none;stroke-width:0.10109876;stroke-miterlimit:4;stroke-dasharray:none;stroke-opacity:1" />
      <path
         transform="scale(0.26458333)"
         id="path1187"
         d="m 396.84375,585.91016 c -12.62033,0 -23.15233,3.82733 -23.15234,8.54882 10e-6,4.72154 10.53201,8.54883 23.15234,8.54883 12.6203,0 23.15234,-3.82729 23.15234,-8.54883 0,-4.72149 -10.53204,-8.54882 -23.15234,-8.54882 z m 0,0.20703 c 12.31366,0 22.58984,3.735 22.58984,8.34179 0,4.60683 -10.27618,8.3418 -22.58984,8.3418 -12.3137,0 -22.58983,-3.73497 -22.58984,-8.3418 10e-6,-4.60679 10.27614,-8.34179 22.58984,-8.34179 z"
         style="display:inline;fill:#b50008;fill-opacity:1;stroke:none;stroke-width:0.387364;stroke-miterlimit:4;stroke-dasharray:none;stroke-opacity:1"
         inkscape:connector-curvature="0" />
      <path
         transform="scale(0.26458333)"
         id="path1233"
         d="m 419.92969,594.51367 c -0.0728,4.01595 -8.12549,7.35888 -18.55469,8.12305 V 657.375 c 10.47783,-0.95834 18.56119,-5.11134 18.57812,-9.29297 l 0.0176,-53.54687 c 0,0 -0.0345,-0.0193 -0.041,-0.0215 z"
         style="display:inline;fill:#000000;fill-opacity:0.31372549;stroke:none;stroke-width:0.99999994px;stroke-linecap:butt;stroke-linejoin:miter;stroke-opacity:1"
         inkscape:connector-curvature="0" />
      <path
         sodipodi:nodetypes="ccccc"
         inkscape:connector-curvature="0"
         d="m 105.54139,161.19701 c -0.20565,0.54571 -0.24298,1.20379 0.1113,1.67212 0.43399,0.5737 0.68148,1.27456 0.79595,1.9845 0.27575,1.71026 0.15847,3.5003 -0.41093,5.1468 -0.20279,0.58639 -0.57247,0.98294 -0.48476,1.70319 0.0633,0.51994 0.0562,1.24943 0.79809,1.08528 0.80014,-0.17705 1.21906,-1.00762 1.47905,-1.70429 0.68974,-1.84822 0.92279,-3.86694 0.72428,-5.81958 -0.12793,-1.25841 -0.34055,-2.63069 -1.23848,-3.58513 -0.45011,-0.47844 -1.14456,-0.65219 -1.7745,-0.48289 z"
         id="path1194"
         inkscape:original-d="m 105.54139,161.19701 c -0.31402,0.99425 -0.022,1.30337 0.14366,1.7554 1.24203,1.36855 1.25704,6.21278 -0.19947,8.03983 0.0248,0.69222 0.17087,1.20813 0.21655,1.6807 3.217,1.60957 4.52942,-12.58332 -0.16074,-11.47593 z"
         inkscape:path-effect="#path-effect1196"
         style="display:inline;fill:#b50008;fill-opacity:1;stroke:#000000;stroke-width:0.1;stroke-linecap:butt;stroke-linejoin:miter;stroke-miterlimit:4;stroke-dasharray:none;stroke-opacity:0.11764706" />
      <path
         transform="scale(0.26458333)"
         id="path1214"
         d="m 400.78516,609.01562 c 5.54831,5.2828 7.07767,13.49725 6.93945,21.25586 -0.0994,5.58373 0.48332,11.97192 -3.29492,16.50391 -1.48736,1.78409 -3.94664,3.31473 -3.51563,6.04688 0.0171,0.1085 0.0485,0.20888 0.0742,0.3125 0.27892,0.0264 0.59802,0.008 0.96875,-0.0742 3.02415,-0.66917 4.60721,-3.80833 5.58985,-6.44141 2.60689,-6.9854 3.48855,-14.61604 2.73828,-21.99609 -0.48352,-4.7562 -1.28789,-9.9415 -4.68164,-13.54883 -1.25806,-1.33724 -3.02233,-2.03953 -4.81836,-2.0586 z"
         style="display:inline;fill:#000000;fill-opacity:0.31372549;stroke:none;stroke-width:0.99999994px;stroke-linecap:butt;stroke-linejoin:miter;stroke-opacity:1"
         inkscape:connector-curvature="0" />
      <path
         transform="scale(0.26458333)"
         id="path1238"
         d="m 387.875,602.13477 v 54.62109 c 1.04496,0.19784 2.13658,0.35456 3.25,0.48437 v -54.71289 c -1.11441,-0.10454 -2.20435,-0.2311 -3.25,-0.39257 z"
         style="display:inline;fill:#ffffff;fill-opacity:0.31372549;stroke:none;stroke-width:0.99999994px;stroke-linecap:butt;stroke-linejoin:miter;stroke-opacity:1"
         inkscape:connector-curvature="0" />
      <path
         transform="scale(0.26458333)"
         id="path1243"
         d="m 373.71875,605.8125 0.0137,35.03516 c 2.505,-0.80272 4.78449,-2.67015 6.35938,-4.70118 2.69382,-3.47402 4.11431,-7.90373 3.45312,-12.26171 -1.06552,-7.02304 -5.10879,-12.98208 -9.82617,-18.07227 z"
         style="display:inline;fill:#000000;fill-opacity:0.31372549;stroke:none;stroke-width:0.99999994px;stroke-linecap:butt;stroke-linejoin:miter;stroke-opacity:1"
         inkscape:connector-curvature="0" />
      <path
         inkscape:connector-curvature="0"
         style="display:inline;fill:#ffffff;fill-opacity:0.31372549;stroke:none;stroke-width:0.02814814;stroke-miterlimit:4;stroke-dasharray:none;stroke-opacity:1"
         d="m 106.46291,157.58537 c -0.14301,0 -0.27995,0.009 -0.41325,0.0219 0.59084,0.0962 1.01213,0.31376 1.01213,0.568 0,0.28974 -0.54788,0.53122 -1.26994,0.59993 0.20676,0.0337 0.43317,0.0528 0.67106,0.0528 0.91707,0 1.6825,-0.278 1.6825,-0.62109 0,-0.34309 -0.76543,-0.62144 -1.6825,-0.62144 z"
         id="path1275" />
      <path
         id="path1277"
         d="m 105.69171,157.95955 c -0.0569,0 -0.11135,0.004 -0.16437,0.009 0.23501,0.0383 0.40259,0.1248 0.40259,0.22593 0,0.11525 -0.21793,0.2113 -0.50514,0.23863 0.0822,0.0134 0.1723,0.021 0.26692,0.021 0.36478,0 0.66924,-0.11058 0.66924,-0.24705 0,-0.13646 -0.30446,-0.24718 -0.66924,-0.24718 z"
         style="display:inline;fill:#ffffff;fill-opacity:0.31372549;stroke:none;stroke-width:0.01119636;stroke-miterlimit:4;stroke-dasharray:none;stroke-opacity:1"
         inkscape:connector-curvature="0" />
      <path
         sodipodi:nodetypes="cszc"
         inkscape:connector-curvature="0"
         id="path4761"
         d="m 112.86328,145.12409 c 0,0 3.11276,10.56328 -0.28345,13.92627 -7.925,7.84748 -0.89783,13.26351 3.48947,8.20592 4.3873,-5.05759 10.34997,-11.35224 -3.20602,-22.13219 z"
         style="display:inline;fill:#eae2d0;fill-opacity:1;stroke:none;stroke-width:0.23875654px;stroke-linecap:butt;stroke-linejoin:miter;stroke-opacity:1" />
      <path
         style="display:inline;fill:#eae2d0;fill-opacity:1;stroke:none;stroke-width:0.23875654px;stroke-linecap:butt;stroke-linejoin:miter;stroke-opacity:1"
         d="m 97.117728,145.12409 c 0,0 -3.112751,10.56328 0.283459,13.92627 7.924993,7.84748 0.897825,13.26351 -3.489472,8.20592 -4.387298,-5.05759 -10.349968,-11.35224 3.206013,-22.13219 z"
         id="path4763"
         inkscape:connector-curvature="0"
         sodipodi:nodetypes="cszc" />
      <path
         transform="scale(0.26458333)"
         id="path1139"
         d="m 426.57031,548.5 c 0,0 5.99568,20.36213 4.75,36.63281 5.69483,1.62738 14.98185,3.14299 25.28516,0.23828 C 453.27836,574.78616 444.38813,562.66903 426.57031,548.5 Z"
         style="display:inline;fill:#9197ff;fill-opacity:1;stroke:none;stroke-width:0.99999994px;stroke-linecap:butt;stroke-linejoin:miter;stroke-opacity:1"
         inkscape:connector-curvature="0" />
      <path
         sodipodi:nodetypes="cccsc"
         inkscape:connector-curvature="0"
         id="path960"
         d="m 112.86329,145.12396 0.41449,1.62677 c 10.23911,11.30467 -3.10489,20.89554 -2.31231,22.20691 1.4586,0.61439 3.46511,0.18799 5.10391,-1.70118 4.3873,-5.05759 10.34989,-11.35255 -3.20609,-22.1325 z"
         style="display:inline;fill:#000000;fill-opacity:0.31372549;stroke:none;stroke-width:0.23875652px;stroke-linecap:butt;stroke-linejoin:miter;stroke-opacity:1" />
      <path
         transform="scale(0.26458333)"
         id="path1144"
         d="m 367.05859,548.5 c -20.28937,16.13446 -29.0026,29.6095 -31.10547,41.18945 11.0445,3.61825 21.04783,2.01115 26.98829,0.30664 C 359.76735,573.26578 367.05859,548.5 367.05859,548.5 Z"
         style="display:inline;fill:#9197ff;fill-opacity:1;stroke:none;stroke-width:0.99999994px;stroke-linecap:butt;stroke-linejoin:miter;stroke-opacity:1"
         inkscape:connector-curvature="0" />
      <path
         inkscape:connector-curvature="0"
         id="path965"
         d="m 97.117706,145.12396 c -0.09976,0.0793 -0.194808,0.15783 -0.292457,0.23667 -5.313564,14.70266 2.889822,22.21223 4.024551,21.42557 0.003,-0.002 0.007,-0.004 0.0101,-0.006 0.48653,-1.8462 -0.29096,-4.59364 -3.45858,-7.73027 -3.396214,-3.36299 -0.283624,-13.92628 -0.283624,-13.92628 z"
         style="display:inline;fill:#0b0b0b;fill-opacity:0.31372549;stroke:none;stroke-width:0.23875652px;stroke-linecap:butt;stroke-linejoin:miter;stroke-opacity:1" />
      <circle
         style="fill:#eae2d0;fill-opacity:1;stroke:none;stroke-width:1;stroke-miterlimit:4;stroke-dasharray:none;stroke-opacity:1"
         r="40"
         cy="101.79673"
         cx="105"
         id="path3713" />
      <path
         transform="scale(0.26458333)"
         sodipodi:nodetypes="ccsccc"
         inkscape:connector-curvature="0"
         id="circle949"
         d="m 547.72461,390.84961 -139.26413,27.3506 c -16.2975,5.70785 48.26539,13.6789 62.51038,21.87516 23.0938,13.28767 -32.70868,82.85786 -73.9611,95.48127 0,0 -0.26953,0.3621 -0.16015,0.36719 81.04857,-0.0979 147.60114,-64.09174 150.875,-145.07422 z"
         style="fill:#000000;fill-opacity:0.31372549;stroke:none;stroke-width:3.77952766;stroke-miterlimit:4;stroke-dasharray:none;stroke-opacity:1" />
      <circle
         style="fill:#000000;fill-opacity:1;stroke:#000000;stroke-width:0.1140177;stroke-miterlimit:4;stroke-dasharray:none;stroke-opacity:1"
         id="circle836"
         cx="99.973877"
         cy="122.07285"
         r="2.1929913" />
      <circle
         r="2.1929913"
         cy="122.07285"
         cx="109.97388"
         id="circle860"
         style="fill:#000000;fill-opacity:1;stroke:#000000;stroke-width:0.1140177;stroke-miterlimit:4;stroke-dasharray:none;stroke-opacity:1" />
      <path
         sodipodi:nodetypes="cc"
         inkscape:connector-curvature="0"
         id="path892"
         d="m 99.999997,127.68475 c -0.207269,5.87054 9.758943,6.09606 10.000003,0"
         style="fill:none;stroke:#000000;stroke-width:1;stroke-linecap:round;stroke-linejoin:miter;stroke-miterlimit:4;stroke-dasharray:none;stroke-opacity:1" />
      <path
         sodipodi:nodetypes="cccc"
         inkscape:connector-curvature="0"
         d="m 100,132.17186 c 0,0 0,10.47999 5,13.21718 5,-2.87547 5,-13.21718 5,-13.21718 -0.24106,6.1652 -10.207269,5.87054 -10,0 z"
         style="fill:#705921;fill-opacity:1;stroke:none;stroke-width:0.26458332px;stroke-linecap:butt;stroke-linejoin:miter;stroke-opacity:1"
         id="path900" />
      <path
         transform="scale(0.26458333)"
         id="path944"
         d="m 415.74805,499.54688 c -0.46514,11.89592 -10.50897,17.41362 -20.12696,17.02734 2.5941,7.67836 4.4618,19.09985 0.27344,32.3418 0.31725,0.1972 0.6265,0.40606 0.95508,0.58593 18.89764,-10.86791 18.89844,-49.95507 18.89844,-49.95507 z"
         style="fill:#000000;fill-opacity:0.31372549;stroke:none;stroke-width:0.99999994px;stroke-linecap:butt;stroke-linejoin:miter;stroke-opacity:1"
         inkscape:connector-curvature="0" />
      <path
         inkscape:connector-curvature="0"
         id="path1101"
         d="m 100.53778,136.90724 c 0.61377,2.56804 1.66755,5.72622 3.38352,7.55836 0.12169,-0.25839 0.19099,-0.56873 0.20067,-0.85427 0.0422,-1.24448 -0.24114,-2.50386 -0.69953,-3.63255 -0.4604,-1.13362 -1.20995,-2.13121 -2.10618,-2.79702 -0.23086,-0.17152 -0.51148,-0.27837 -0.77848,-0.27452 z"
         style="fill:#ffffff;fill-opacity:0.31372549;stroke:none;stroke-width:0.23875652px;stroke-linecap:butt;stroke-linejoin:miter;stroke-opacity:1" />
      <path
         sodipodi:nodetypes="cccccccccccccc"
         inkscape:connector-curvature="0"
         d="M 165.49397,95.93381 143.7799,91.70504 154.90118,66.461341 129.83492,70.381925 128.45843,46.243716 105.00591,61.297141 81.61542,46.243721 80.238937,70.381929 55.178579,66.461766 66.299861,91.705468 44.585787,95.934232 70.698696,122.04714 C 93.14929,108.49876 116.0253,108.5933 139.40395,122.047 Z"
         style="fill:#705921;fill-opacity:1;stroke:none;stroke-width:0.26458332px;stroke-linecap:butt;stroke-linejoin:miter;stroke-opacity:1"
         id="path862-3" />
      <path
         id="path939"
         transform="scale(0.26458333)"
         d="m 485.51172,174.7793 -43.44141,27.88281 26.50196,-5.85742 0.71289,90 65.71484,-2.14258 -33.57227,70 51.42969,25.71484 -48.57226,43.57227 c 0,0 -51.3986,-10.88808 -93.11524,-0.37695 38.21834,2.70883 76.78,15.30346 115.71094,37.70703 l 98.60742,-98.69532 -82.06836,-15.98242 42.0332,-95.4082 -94.73828,14.81641 z"
         style="fill:#000000;fill-opacity:0.31372549;stroke:none;stroke-width:0.99999994px;stroke-linecap:butt;stroke-linejoin:miter;stroke-opacity:1"
         inkscape:connector-curvature="0" />
      <path
         sodipodi:nodetypes="ccccccccccccccc"
         inkscape:connector-curvature="0"
         id="path1047"
         transform="scale(0.26458333)"
         d="m 308.4668,174.7793 -5.20152,91.23114 25.23472,-63.99091 26.01758,2.39649 z m -99.91797,76.41406 42.03332,95.40999 L 222,261.01953 l 61.78516,1.94336 z m -4.78321,104.52734 -35.25195,6.86524 97.85352,97.85351 C 258.14724,445.56241 186.5,368.01953 186.5,368.01953 Z"
         style="fill:#ffffff;fill-opacity:0.31372549;stroke:none;stroke-width:0.99999994px;stroke-linecap:butt;stroke-linejoin:miter;stroke-opacity:1" />
    </g>
  </g>
</svg>
